<svg width="48" height="48" viewBox="0 0 48 48" fill="none" xmlns="http://www.w3.org/2000/svg">
<g id="Linkedin" clip-path="url(#clip0_39_712)">
<path id="Vector" d="M0 15.0004H10.5383V47.3988H0V15.0004ZM39.2433 15.3803C39.1314 15.345 39.0254 15.3067 38.9076 15.2743C38.7661 15.2423 38.6237 15.2148 38.4805 15.1918C37.8582 15.0646 37.2247 15.0004 36.5896 15.0004C30.4457 15.0004 26.549 19.4684 25.2649 21.1944V15.0004H14.7266V47.3988H25.2649V29.7269C25.2649 29.7269 33.229 18.6349 36.5896 26.7816V47.3988H47.125V25.5357C47.1206 23.2094 46.3444 20.9502 44.9181 19.1123C43.4917 17.2745 41.4958 15.9619 39.2433 15.3803Z" fill="white"/>
<path id="Vector_2" d="M5.15429 10.5825C8.00093 10.5825 10.3086 8.27483 10.3086 5.42819C10.3086 2.58155 8.00093 0.273895 5.15429 0.273895C2.30766 0.273895 0 2.58155 0 5.42819C0 8.27483 2.30766 10.5825 5.15429 10.5825Z" fill="white"/>
</g>
<defs>
<clipPath id="clip0_39_712">
<rect width="47.125" height="47.125" fill="white" transform="translate(0 0.273941)"/>
</clipPath>
</defs>
</svg>
