<svg width="40" height="40" viewBox="0 0 46 46" fill="none" xmlns="http://www.w3.org/2000/svg">
<g id="Cancel">
<path id="Vector" d="M25.7024 23L33.944 14.7775C34.305 14.4166 34.5077 13.9271 34.5077 13.4167C34.5077 12.9063 34.305 12.4167 33.944 12.0558C33.5831 11.6949 33.0936 11.4922 32.5832 11.4922C32.0728 11.4922 31.5833 11.6949 31.2224 12.0558L22.9999 20.2975L14.7774 12.0558C14.4165 11.6949 13.927 11.4922 13.4165 11.4922C12.9061 11.4922 12.4166 11.6949 12.0557 12.0558C11.6948 12.4167 11.492 12.9063 11.492 13.4167C11.492 13.9271 11.6948 14.4166 12.0557 14.7775L20.2974 23L12.0557 31.2225C11.8761 31.4007 11.7335 31.6127 11.6362 31.8462C11.5389 32.0798 11.4888 32.3303 11.4888 32.5833C11.4888 32.8364 11.5389 33.0869 11.6362 33.3204C11.7335 33.554 11.8761 33.766 12.0557 33.9442C12.2339 34.1238 12.4459 34.2664 12.6794 34.3637C12.913 34.461 13.1635 34.5111 13.4165 34.5111C13.6696 34.5111 13.9201 34.461 14.1537 34.3637C14.3872 34.2664 14.5992 34.1238 14.7774 33.9442L22.9999 25.7025L31.2224 33.9442C31.4006 34.1238 31.6125 34.2664 31.8461 34.3637C32.0797 34.461 32.3302 34.5111 32.5832 34.5111C32.8362 34.5111 33.0868 34.461 33.3203 34.3637C33.5539 34.2664 33.7659 34.1238 33.944 33.9442C34.1237 33.766 34.2663 33.554 34.3636 33.3204C34.4609 33.0869 34.511 32.8364 34.511 32.5833C34.511 32.3303 34.4609 32.0798 34.3636 31.8462C34.2663 31.6127 34.1237 31.4007 33.944 31.2225L25.7024 23Z" fill="black"/>
</g>
</svg>
