<svg width="41" height="41" viewBox="0 0 41 41" fill="none" xmlns="http://www.w3.org/2000/svg">
<path fill-rule="evenodd" clip-rule="evenodd" d="M3.67444 20.1629C3.67444 10.9153 11.1711 3.4187 20.4186 3.4187C29.6662 3.4187 37.1628 10.9153 37.1628 20.1629C37.1628 29.4104 29.6662 36.9071 20.4186 36.9071C11.1711 36.9071 3.67444 29.4104 3.67444 20.1629ZM22.093 10.9536C22.093 10.0288 21.3434 9.27917 20.4186 9.27917C19.4938 9.27917 18.7442 10.0288 18.7442 10.9536V22.6745C18.7442 23.5993 19.4938 24.3489 20.4186 24.3489C21.3434 24.3489 22.093 23.5993 22.093 22.6745V10.9536ZM20.4186 27.6978C21.3434 27.6978 22.093 28.4474 22.093 29.3722C22.093 30.297 21.3434 31.0466 20.4186 31.0466C19.4938 31.0466 18.7442 30.297 18.7442 29.3722C18.7442 28.4474 19.4938 27.6978 20.4186 27.6978Z" fill="#333333"/>
</svg>
