<svg width="36" height="36" viewBox="0 0 36 36" fill="none" xmlns="http://www.w3.org/2000/svg">
<g clip-path="url(#clip0_62_1533)">
<path d="M9.47468 29.118H1.68368C1.26518 29.118 1.12493 29.118 1.12493 28.3597V26.556C1.12493 26.4068 1.06566 26.2637 0.960175 26.1582C0.854686 26.0527 0.711612 25.9935 0.562428 25.9935C0.413243 25.9935 0.270169 26.0527 0.16468 26.1582C0.0591908 26.2637 -7.2455e-05 26.4068 -7.2455e-05 26.556V28.3597C-0.0424699 28.5993 -0.0299103 28.8453 0.0366588 29.0793C0.103228 29.3133 0.222068 29.5291 0.384213 29.7104C0.546357 29.8918 0.747572 30.034 0.972676 30.1262C1.19778 30.2185 1.44089 30.2584 1.68368 30.243H9.47468C9.62386 30.243 9.76693 30.1837 9.87242 30.0782C9.97791 29.9727 10.0372 29.8296 10.0372 29.6805C10.0372 29.5313 9.97791 29.3882 9.87242 29.2827C9.76693 29.1772 9.62386 29.118 9.47468 29.118ZM0.562428 24.7852C0.711612 24.7852 0.854686 24.7259 0.960175 24.6204C1.06566 24.515 1.12493 24.3719 1.12493 24.2227V5.6287L18.1499 5.65795V15.0367C18.1499 15.1859 18.2092 15.329 18.3147 15.4344C18.4202 15.5399 18.5632 15.5992 18.7124 15.5992C18.8616 15.5992 19.0047 15.5399 19.1102 15.4344C19.2157 15.329 19.2749 15.1859 19.2749 15.0367V5.65795C19.2777 5.35374 19.1596 5.06087 18.9465 4.84372C18.7335 4.62657 18.4429 4.50292 18.1387 4.49995H1.60193L4.17443 2.32495H20.5244C20.7631 2.32495 20.992 2.41977 21.1608 2.58856C21.3296 2.75734 21.4244 2.98626 21.4244 3.22495V14.64C21.4244 14.7891 21.4837 14.9322 21.5892 15.0377C21.6947 15.1432 21.8377 15.2025 21.9869 15.2025C22.1361 15.2025 22.2792 15.1432 22.3847 15.0377C22.4902 14.9322 22.5494 14.7891 22.5494 14.64V3.22495C22.5494 2.68789 22.3361 2.17282 21.9563 1.79306C21.5766 1.4133 21.0615 1.19995 20.5244 1.19995H3.96893C3.83603 1.19987 3.70742 1.24691 3.60593 1.3327L0.264678 4.1632C0.185688 4.24421 0.123944 4.3404 0.0831775 4.44595C0.0309589 4.52982 0.00220881 4.62618 -7.2455e-05 4.72495V24.225C0.000522727 24.3737 0.0600486 24.5162 0.165473 24.6212C0.270898 24.7262 0.413632 24.7852 0.562428 24.7852Z" fill="#1A1A1A"/>
<path d="M20.3565 14.8358C20.5056 14.8358 20.6487 14.7765 20.7542 14.671C20.8597 14.5655 20.919 14.4224 20.919 14.2733V4.53001C20.9184 4.08694 20.7423 3.66214 20.4293 3.34856C20.1163 3.03498 19.6918 2.85815 19.2487 2.85676L5.18921 2.82751C5.04002 2.82751 4.89695 2.88678 4.79146 2.99227C4.68597 3.09776 4.62671 3.24083 4.62671 3.39001C4.62671 3.5392 4.68597 3.68227 4.79146 3.78776C4.89695 3.89325 5.04002 3.95251 5.18921 3.95251L19.2495 3.98176C19.3947 3.98216 19.5338 4.04007 19.6364 4.14283C19.739 4.24558 19.7968 4.3848 19.797 4.53001V14.2733C19.797 14.4219 19.8558 14.5646 19.9606 14.67C20.0655 14.7754 20.2078 14.835 20.3565 14.8358ZM28.104 25.5443C27.9548 25.5443 27.8117 25.6035 27.7062 25.709C27.6007 25.8145 27.5415 25.9576 27.5415 26.1068V30.7838C27.5425 30.8935 27.5168 31.0019 27.4665 31.0995C27.15 31.7033 25.65 33.675 19.65 33.675C13.65 33.675 12.15 31.7055 11.8297 31.101C11.7795 31.0037 11.7538 30.8955 11.7547 30.786V26.3453C11.7547 26.1961 11.6954 26.053 11.59 25.9475C11.4845 25.842 11.3414 25.7828 11.1922 25.7828C11.043 25.7828 10.9 25.842 10.7945 25.9475C10.689 26.053 10.6297 26.1961 10.6297 26.3453V30.7838C10.6281 31.0756 10.6971 31.3635 10.8307 31.623C11.3362 32.5778 13.2 34.8 19.65 34.8C26.1 34.8 27.963 32.58 28.4647 31.626C28.5994 31.3666 28.6689 31.0783 28.6672 30.786V26.1068C28.6672 26.0328 28.6526 25.9596 28.6243 25.8913C28.596 25.823 28.5545 25.761 28.5022 25.7088C28.4499 25.6565 28.3878 25.6151 28.3194 25.5869C28.2511 25.5586 28.1779 25.5442 28.104 25.5443Z" fill="#1A1A1A"/>
<path d="M35.6153 20.7293L20.7338 15.7583C20.6202 15.7201 20.4972 15.7201 20.3836 15.7583L3.62032 21.1328C3.50839 21.1696 3.41083 21.2407 3.34138 21.3358C3.27193 21.431 3.23408 21.5456 3.23317 21.6635C3.23226 21.7813 3.26833 21.8964 3.3363 21.9927C3.40427 22.089 3.50072 22.1615 3.61207 22.2L19.2871 27.498C19.3451 27.5176 19.4058 27.5278 19.4671 27.528C19.5315 27.5279 19.5954 27.5168 19.6561 27.495L31.1618 23.3865V26.0865C30.774 26.2037 30.434 26.4422 30.1919 26.767C29.9498 27.0919 29.8184 27.4859 29.8171 27.891V29.025C29.8171 29.5279 30.0168 30.0101 30.3724 30.3657C30.728 30.7213 31.2102 30.921 31.7131 30.921C32.2159 30.921 32.6982 30.7213 33.0537 30.3657C33.4093 30.0101 33.6091 29.5279 33.6091 29.025V27.8895C33.608 27.4881 33.4794 27.0973 33.2417 26.7738C33.004 26.4502 32.6696 26.2106 32.2868 26.0895V22.9845L35.6251 21.7928C35.7353 21.7535 35.8306 21.6807 35.8975 21.5847C35.9645 21.4886 35.9998 21.3741 35.9986 21.257C35.9973 21.14 35.9596 21.0262 35.8906 20.9316C35.8217 20.837 35.7249 20.7663 35.6138 20.7293H35.6153ZM32.4811 29.025C32.4811 29.2295 32.3998 29.4256 32.2552 29.5702C32.1107 29.7148 31.9146 29.796 31.7101 29.796C31.5056 29.796 31.3095 29.7148 31.1649 29.5702C31.0203 29.4256 30.9391 29.2295 30.9391 29.025V27.8895C30.9391 27.7883 30.959 27.688 30.9978 27.5945C31.0365 27.501 31.0933 27.416 31.1649 27.3444C31.2365 27.2728 31.3215 27.216 31.415 27.1772C31.5086 27.1385 31.6088 27.1185 31.7101 27.1185C31.8113 27.1185 31.9116 27.1385 32.0051 27.1772C32.0987 27.216 32.1837 27.2728 32.2552 27.3444C32.3268 27.416 32.3836 27.501 32.4224 27.5945C32.4611 27.688 32.4811 27.7883 32.4811 27.8895V29.025ZM31.6441 22.02L19.7093 20.7323C19.6349 20.7225 19.5594 20.7277 19.487 20.7475C19.4147 20.7673 19.347 20.8014 19.2881 20.8478C19.2291 20.8942 19.18 20.9519 19.1437 21.0175C19.1073 21.0831 19.0845 21.1554 19.0765 21.2299C19.0685 21.3045 19.0755 21.38 19.0971 21.4518C19.1186 21.5237 19.1544 21.5905 19.2022 21.6483C19.25 21.7061 19.3088 21.7538 19.3753 21.7885C19.4418 21.8233 19.5146 21.8443 19.5893 21.8505L29.2111 22.8885L19.4611 26.3715L5.59057 21.6825L20.5516 16.8825L33.7148 21.2798L31.6441 22.02Z" fill="#1A1A1A"/>
</g>
<defs>
<clipPath id="clip0_62_1533">
<rect width="36" height="36" fill="white"/>
</clipPath>
</defs>
</svg>
