<svg width="32" height="33" viewBox="0 0 32 33" fill="none" xmlns="http://www.w3.org/2000/svg">
<g id="Home">
<path id="Vector" d="M15.9537 3.17822C15.7562 3.18894 15.5664 3.25828 15.4083 3.37742L3.45206 12.3765C3.33913 12.4522 3.24281 12.5502 3.16899 12.6645C3.09517 12.7788 3.04541 12.907 3.02276 13.0412C3.00011 13.1755 3.00505 13.313 3.03727 13.4453C3.06949 13.5775 3.12832 13.7018 3.21015 13.8105C3.29198 13.9192 3.39509 14.01 3.51315 14.0773C3.63121 14.1446 3.76174 14.187 3.89674 14.202C4.03173 14.2169 4.16835 14.2041 4.29822 14.1642C4.42808 14.1243 4.54846 14.0583 4.65197 13.9701L16.0044 5.42214L27.3645 13.9701C27.468 14.0583 27.5884 14.1243 27.7183 14.1642C27.8481 14.204 27.9848 14.2169 28.1198 14.202C28.2548 14.187 28.3853 14.1446 28.5033 14.0773C28.6214 14.01 28.7245 13.9192 28.8063 13.8105C28.8882 13.7018 28.947 13.5775 28.9792 13.4453C29.0115 13.313 29.0164 13.1755 28.9937 13.0412C28.9711 12.907 28.9213 12.7788 28.8475 12.6645C28.7737 12.5502 28.6774 12.4522 28.5644 12.3765L16.6082 3.37742C16.4203 3.23576 16.1885 3.16521 15.9537 3.17822ZM15.9537 7.62896C15.7562 7.63968 15.5664 7.70901 15.4083 7.82816L5.4467 15.3509C5.32355 15.4438 5.22358 15.5642 5.15463 15.7024C5.08569 15.8407 5.04964 15.9931 5.04934 16.1476V28.1719C5.04884 28.3033 5.0742 28.4336 5.12397 28.5552C5.17375 28.6769 5.24695 28.7875 5.33941 28.8807C5.43186 28.9739 5.54174 29.048 5.66277 29.0986C5.78379 29.1492 5.91358 29.1754 6.04471 29.1757H13.0163C13.1479 29.1762 13.2783 29.1505 13.4 29.1003C13.5217 29.05 13.6323 28.9761 13.7254 28.8828C13.8184 28.7895 13.8922 28.6786 13.9423 28.5566C13.9924 28.4346 14.018 28.3038 14.0175 28.1719L13.9948 21.1745H17.9997V28.1719C17.9992 28.3033 18.0246 28.4336 18.0744 28.5552C18.1241 28.6769 18.1973 28.7875 18.2898 28.8807C18.3822 28.9739 18.4921 29.048 18.6131 29.0986C18.7342 29.1492 18.864 29.1754 18.9951 29.1757H25.9744C26.2389 29.1746 26.4922 29.0683 26.6785 28.88C26.8648 28.6918 26.9689 28.437 26.9679 28.1719V16.1476C26.9676 15.9931 26.9315 15.8407 26.8626 15.7024C26.7936 15.5642 26.6937 15.4438 26.5705 15.3509L16.6089 7.82816C16.421 7.6865 16.1885 7.61594 15.9537 7.62896ZM16.0044 9.88069L24.9725 16.6417V27.1759H19.9956V20.1707C19.9945 19.9055 19.8885 19.6516 19.7007 19.4648C19.5129 19.278 19.2589 19.1737 18.9944 19.1747H13.0007C12.8691 19.1742 12.7386 19.1998 12.6169 19.2501C12.4952 19.3003 12.3847 19.3743 12.2916 19.4676C12.1985 19.5609 12.1248 19.6717 12.0747 19.7938C12.0245 19.9158 11.999 20.0465 11.9995 20.1785L12.0221 27.1759H7.04594V16.6417L16.0044 9.88069Z" fill="black"/>
</g>
</svg>
