<svg width="101" height="101" viewBox="0 0 101 101" fill="none" xmlns="http://www.w3.org/2000/svg">
<path d="M76.8917 17.8535C75.7021 17.8535 74.5392 18.2063 73.55 18.8672C72.5608 19.5282 71.7899 20.4676 71.3346 21.5667C70.8793 22.6658 70.7602 23.8752 70.9923 25.042C71.2244 26.2088 71.7973 27.2805 72.6385 28.1218C73.4797 28.963 74.5515 29.5358 75.7183 29.7679C76.8851 30 78.0945 29.8809 79.1936 29.4256C80.2927 28.9704 81.2321 28.1994 81.893 27.2103C82.554 26.2211 82.9068 25.0582 82.9068 23.8685C82.9068 22.2732 82.273 20.7433 81.145 19.6153C80.017 18.4872 78.487 17.8535 76.8917 17.8535ZM99.9492 29.9838C99.8518 25.8249 99.0728 21.7101 97.6435 17.8034C96.369 14.4607 94.3853 11.4339 91.829 8.93125C89.3469 6.36198 86.313 4.39081 82.9569 3.16688C79.0604 1.69401 74.9411 0.897269 70.7765 0.811004C65.4633 0.510254 63.759 0.510254 50.125 0.510254C36.491 0.510254 34.7867 0.510254 29.4735 0.811004C25.3089 0.897269 21.1896 1.69401 17.2931 3.16688C13.9432 4.4032 10.9119 6.37268 8.421 8.93125C5.85172 11.4133 3.88056 14.4472 2.65662 17.8034C1.18376 21.6998 0.387015 25.8191 0.30075 29.9838C-2.80095e-07 35.297 0 37.0013 0 50.6353C0 64.2693 -2.80095e-07 65.9735 0.30075 71.2868C0.387015 75.4514 1.18376 79.5707 2.65662 83.4671C3.88056 86.8233 5.85172 89.8572 8.421 92.3392C10.9119 94.8978 13.9432 96.8673 17.2931 98.1036C21.1896 99.5765 25.3089 100.373 29.4735 100.46C34.7867 100.76 36.491 100.76 50.125 100.76C63.759 100.76 65.4633 100.76 70.7765 100.46C74.9411 100.373 79.0604 99.5765 82.9569 98.1036C86.313 96.8797 89.3469 94.9085 91.829 92.3392C94.3966 89.8459 96.382 86.8164 97.6435 83.4671C99.0728 79.5604 99.8518 75.4456 99.9492 71.2868C99.9492 65.9735 100.25 64.2693 100.25 50.6353C100.25 37.0013 100.25 35.297 99.9492 29.9838ZM90.9267 70.6853C90.8902 73.867 90.314 77.0196 89.2225 80.0085C88.4222 82.1899 87.1367 84.161 85.4631 85.7729C83.8373 87.4295 81.8703 88.7124 79.6987 89.5323C76.7098 90.6237 73.5573 91.2 70.3755 91.2365C65.363 91.4871 63.5084 91.5372 50.3255 91.5372C37.1426 91.5372 35.288 91.5373 30.2755 91.2365C26.9717 91.2984 23.682 90.7896 20.5512 89.7327C18.475 88.871 16.5982 87.5913 15.0375 85.9734C13.3738 84.3631 12.1044 82.3904 11.3283 80.209C10.1045 77.1772 9.42572 73.9531 9.32325 70.6853C9.32325 65.6728 9.0225 63.8181 9.0225 50.6353C9.0225 37.4524 9.0225 35.5978 9.32325 30.5853C9.34572 27.3324 9.93954 24.1088 11.0776 21.0615C11.9601 18.9458 13.3145 17.0598 15.0375 15.5478C16.5604 13.8243 18.4424 12.4555 20.5512 11.5378C23.6066 10.4352 26.8269 9.85896 30.075 9.8335C35.0875 9.8335 36.9421 9.53275 50.125 9.53275C63.3079 9.53275 65.1625 9.53275 70.175 9.8335C73.3568 9.87 76.5093 10.4463 79.4983 11.5378C81.7761 12.3831 83.8205 13.7575 85.4631 15.5478C87.1057 17.0875 88.3892 18.97 89.2225 21.0615C90.3365 24.1138 90.9132 27.336 90.9267 30.5853C91.1774 35.5978 91.2275 37.4524 91.2275 50.6353C91.2275 63.8181 91.1774 65.6728 90.9267 70.6853ZM50.125 24.9211C45.0414 24.931 40.0747 26.4476 35.8527 29.2791C31.6306 32.1106 28.3426 36.1301 26.404 40.8296C24.4655 45.5291 23.9634 50.6977 24.9612 55.6825C25.9591 60.6672 28.412 65.2444 32.0102 68.8355C35.6084 72.4267 40.1903 74.8708 45.177 75.8589C50.1636 76.847 55.3313 76.3349 60.027 74.3872C64.7228 72.4395 68.7358 69.1436 71.5591 64.916C74.3824 60.6885 75.8892 55.7189 75.8892 50.6353C75.8959 47.2523 75.2336 43.9015 73.9406 40.7754C72.6475 37.6494 70.7492 34.8098 68.3548 32.4201C65.9604 30.0303 63.1171 28.1375 59.9886 26.8506C56.86 25.5636 53.5079 24.9079 50.125 24.9211ZM50.125 67.3269C46.8237 67.3269 43.5966 66.3479 40.8516 64.5138C38.1067 62.6797 35.9673 60.0729 34.7039 57.0229C33.4406 53.9729 33.11 50.6167 33.7541 47.3789C34.3981 44.141 35.9879 41.1669 38.3222 38.8325C40.6566 36.4981 43.6308 34.9084 46.8686 34.2644C50.1065 33.6203 53.4626 33.9509 56.5126 35.2142C59.5626 36.4776 62.1695 38.617 64.0036 41.3619C65.8377 44.1068 66.8166 47.334 66.8166 50.6353C66.8166 52.8272 66.3849 54.9977 65.546 57.0229C64.7072 59.048 63.4777 60.8881 61.9278 62.438C60.3778 63.988 58.5377 65.2175 56.5126 66.0563C54.4875 66.8951 52.317 67.3269 50.125 67.3269Z" fill="white"/>
</svg>
