<svg width="514" height="172" viewBox="0 0 514 172" fill="none" xmlns="http://www.w3.org/2000/svg">
<path d="M10.1628 68.4617H32.0033V3.12964H10.1628V68.4617ZM6.24463 75.9283H35.9259V80.41H6.24463V75.9283Z" fill="#22A2E7"/>
<path d="M39.6366 68.4617H61.2922V38.3161L85.5584 68.4617H104.969V3.12964H83.3176V31.9677L60.0749 3.12964H39.6366V68.4617ZM35.9033 75.9283H108.702V80.41H35.9033V75.9283ZM134.195 68.9262H155.097L181.604 3.12964H157.527L144.831 39.8085L132.139 3.12964H107.687L134.195 68.9262ZM108.715 75.9283H180.581V80.41H108.715V75.9283Z" fill="#22A2E7"/>
<path d="M184.305 68.4611H240.489V50.5432H205.771V43.4464H237.689V27.6747H205.771V21.0468H240.024V3.12895H184.305V68.4611ZM180.572 75.9276H242.639V80.4093H180.572V75.9276ZM274.462 69.6739C292.011 69.6739 303.305 61.2741 303.305 47.5539V47.369C303.305 34.3026 292.105 29.2618 275.396 26.277C268.398 25.0596 266.716 23.8467 266.716 22.0748V21.89C266.716 20.3029 268.209 19.1802 271.478 19.1802C277.542 19.1802 284.824 21.1415 291.077 25.6232L301.718 10.875C294.157 4.90091 284.918 1.91611 272.226 1.91611C254.304 1.91611 244.506 11.5288 244.506 23.9414V24.1263C244.506 37.9412 257.383 42.1434 272.037 45.1282C279.039 46.5259 281.09 47.5539 281.09 49.4205V49.6099C281.09 51.3818 279.503 52.4098 275.49 52.4098C267.744 52.4098 259.719 50.2592 252.626 44.754L240.958 58.659C249.263 66.0354 261.116 69.6739 274.462 69.6739ZM242.639 75.9276H304.608V80.4093H242.639V75.9276Z" fill="#22A2E7"/>
<path d="M322.715 68.4617H344.551V21.6111H363.781V3.12964H303.485V21.6111H322.715V68.4617ZM302.272 75.9283H364.994V80.41H302.272V75.9283Z" fill="#22A2E7"/>
<path d="M399.991 69.8589C420.15 69.8589 435.737 54.741 435.737 35.7952V35.6103C435.737 16.5698 420.335 1.7269 400.176 1.7269C380.018 1.7269 364.431 16.8493 364.431 35.7952V35.98C364.431 55.0206 379.833 69.8589 399.991 69.8589ZM400.176 50.5434C391.777 50.5434 386.456 43.5412 386.456 35.7952V35.6103C386.456 27.9544 391.686 21.047 399.991 21.047C408.391 21.047 413.712 28.0491 413.712 35.7952V35.98C413.712 43.6359 408.486 50.5434 400.176 50.5434ZM362.19 75.9277H437.978V80.4095H362.19V75.9277ZM441.729 68.4612H463.57V49.7949H468.236L480.554 68.4612H505.474L490.262 46.2465C498.193 42.423 503.139 35.8899 503.139 26.2772V26.0878C503.139 19.3697 501.182 14.6084 497.169 10.5956C492.593 6.02374 485.315 3.12911 473.647 3.12911H441.729V68.4612ZM463.57 34.2081V21.4212H473.088C478.223 21.4212 481.393 23.4772 481.393 27.6749V27.8597C481.393 31.877 478.223 34.2081 472.993 34.2081H463.57ZM437.996 75.9277H504.726V80.4095H437.996V75.9277Z" fill="#22A2E7"/>
<path d="M5.02734 165.851H32.6436L36.6203 155.467H63.6864L67.7714 165.851H95.8295L63.2446 87.971H37.6167L5.02734 165.851ZM43.14 137.13L50.2097 118.351L57.2795 137.13H43.14ZM132.373 167.506C151.481 167.506 162.42 158.118 168.935 146.63L147.617 134.587C144.412 140.331 140.435 144.308 133.036 144.308C124.528 144.308 118.563 137.238 118.563 127.188V126.967C118.563 117.688 124.307 110.064 133.036 110.064C140.106 110.064 144.082 113.82 147.063 119.456L168.385 106.971C161.865 95.1535 150.489 86.8664 133.365 86.8664C110.28 86.8664 92.2721 104.099 92.2721 127.188V127.409C92.2721 151.378 110.943 167.506 132.373 167.506ZM211.268 167.398C234.353 167.398 249.709 157.014 249.709 130.61V88.5256H223.419V131.386C223.419 140.773 218.558 144.529 211.489 144.529C204.527 144.529 199.558 140.444 199.558 130.831V88.5256H173.268V131.165C173.268 156.793 188.291 167.398 211.268 167.398ZM257.87 165.851H283.169V127.517L300.952 155.025H301.393L319.181 127.517V165.851H344.917V88.5256H317.963L301.393 115.7L284.824 88.5256H257.87V165.851ZM353.754 165.851H420.254V144.642H379.161V136.246H416.94V117.576H379.161V109.735H419.699V88.5256H353.754V165.851ZM427.197 165.851H452.825V130.169L481.546 165.851H504.523V88.5256H478.895V122.657L451.387 88.5256H427.197V165.851Z" fill="#22A2E7"/>
</svg>
