<svg width="267" height="89" viewBox="0 0 267 89" fill="none" xmlns="http://www.w3.org/2000/svg">
<path d="M5.27913 35.5628H16.6243V1.62573H5.27913V35.5628ZM3.24384 39.4414H18.6619V41.7694H3.24384V39.4414Z" fill="#22A2E7"/>
<path d="M20.5895 35.5628H31.8386V19.9035L44.4438 35.5628H54.5266V1.62573H43.2798V16.6058L31.2063 1.62573H20.5895V35.5628ZM18.6502 39.4414H56.4659V41.7694H18.6502V39.4414ZM69.7081 35.8041H80.5661L94.3354 1.62573H81.8285L75.2332 20.6788L68.6401 1.62573H55.9389L69.7081 35.8041ZM56.4729 39.4414H93.8037V41.7694H56.4729V39.4414Z" fill="#22A2E7"/>
<path d="M95.7382 35.5622H124.923V26.2547H106.889V22.5682H123.469V14.3756H106.889V10.9327H124.682V1.62514H95.7382V35.5622ZM93.799 39.4408H126.04V41.7688H93.799V39.4408ZM142.571 36.1923C151.686 36.1923 157.553 31.8289 157.553 24.7019V24.6059C157.553 17.8184 151.736 15.2 143.056 13.6495C139.421 13.0171 138.547 12.3871 138.547 11.4667V11.3706C138.547 10.5462 139.322 9.96303 141.02 9.96303C144.171 9.96303 147.953 10.9818 151.202 13.3099L156.729 5.64888C152.801 2.54559 148.002 0.995117 141.409 0.995117C132.099 0.995117 127.01 5.98847 127.01 12.4363V12.5323C127.01 19.7085 133.699 21.8914 141.311 23.4419C144.948 24.1679 146.014 24.7019 146.014 25.6715V25.7699C146.014 26.6903 145.189 27.2243 143.105 27.2243C139.081 27.2243 134.912 26.1072 131.228 23.2475L125.167 30.4705C129.481 34.3022 135.638 36.1923 142.571 36.1923ZM126.04 39.4408H158.23V41.7688H126.04V39.4408Z" fill="#22A2E7"/>
<path d="M167.636 35.5628H178.979V11.226H188.968V1.62573H157.647V11.226H167.636V35.5628ZM157.017 39.4414H189.598V41.7694H157.017V39.4414Z" fill="#22A2E7"/>
<path d="M207.778 36.2885C218.249 36.2885 226.346 28.4354 226.346 18.5939V18.4979C226.346 8.60718 218.345 0.896973 207.874 0.896973C197.402 0.896973 189.305 8.75239 189.305 18.5939V18.6899C189.305 28.5807 197.306 36.2885 207.778 36.2885ZM207.874 26.2549C203.51 26.2549 200.747 22.6177 200.747 18.5939V18.4979C200.747 14.521 203.463 10.9329 207.778 10.9329C212.141 10.9329 214.905 14.5702 214.905 18.5939V18.6899C214.905 22.6668 212.19 26.2549 207.874 26.2549ZM188.141 39.441H227.51V41.769H188.141V39.441ZM229.458 35.5625H240.804V25.8661H243.228L249.626 35.5625H262.571L254.669 24.0229C258.789 22.0368 261.358 18.6431 261.358 13.6497V13.5514C261.358 10.0616 260.341 7.58836 258.257 5.50388C255.88 3.12899 252.1 1.62536 246.038 1.62536H229.458V35.5625ZM240.804 17.7695V11.1273H245.748C248.415 11.1273 250.062 12.1953 250.062 14.3758V14.4718C250.062 16.5586 248.415 17.7695 245.699 17.7695H240.804ZM227.519 39.441H262.182V41.769H227.519V39.441Z" fill="#22A2E7"/>
<path d="M2.61142 86.1523H16.9568L19.0225 80.7584H33.0822L35.2042 86.1523H49.7791L32.8527 45.6971H19.5401L2.61142 86.1523ZM22.4092 71.2331L26.0816 61.4782L29.7541 71.2331H22.4092ZM68.7618 87.0118C78.6877 87.0118 84.3696 82.1356 87.754 76.1679L76.6805 69.9121C75.0153 72.896 72.9495 74.9617 69.1061 74.9617C64.6866 74.9617 61.588 71.2893 61.588 66.0687V65.954C61.588 61.1339 64.5718 57.1734 69.1061 57.1734C72.7785 57.1734 74.8443 59.1244 76.3924 62.052L87.4682 55.5667C84.0816 49.4281 78.1724 45.1233 69.2771 45.1233C57.2855 45.1233 47.9312 54.0748 47.9312 66.0687V66.1835C47.9312 78.6341 57.6298 87.0118 68.7618 87.0118ZM109.744 86.9556C121.736 86.9556 129.713 81.5618 129.713 67.8464V45.9852H116.056V68.2492C116.056 73.1255 113.531 75.0764 109.859 75.0764C106.243 75.0764 103.662 72.9545 103.662 67.9611V45.9852H90.0047V68.1345C90.0047 81.447 97.8086 86.9556 109.744 86.9556ZM133.952 86.1523H147.094V66.2397L156.331 80.5289H156.56L165.8 66.2397V86.1523H179.169V45.9852H165.168L156.56 60.101L147.953 45.9852H133.952V86.1523ZM183.759 86.1523H218.303V75.135H196.957V70.774H216.581V61.0753H196.957V57.0024H218.015V45.9852H183.759V86.1523ZM221.91 86.1523H235.222V67.6168L250.141 86.1523H262.077V45.9852H248.764V63.7149L234.475 45.9852H221.91V86.1523Z" fill="#22A2E7"/>
</svg>
