<svg width="290" height="53" viewBox="0 0 290 53" fill="none" xmlns="http://www.w3.org/2000/svg">
<path d="M0.31 39V0.499997H9.33V39H0.31ZM13.5663 39V9.63H22.6413L22.5863 15.57C22.8613 14.965 25.3913 9.025 32.6513 9.025C38.5363 9.025 40.6813 12.545 40.6813 19.255V39H31.6613C31.5513 29.98 31.5513 29.925 31.5513 21.675C31.5513 19.53 30.3413 17.495 28.3063 17.44C25.0613 17.385 22.6413 19.585 22.6413 25.635V39H13.5663ZM51.6027 39L43.1327 9.52H52.5377L57.9277 28.275L63.8127 9.52H73.2727L64.0877 39H51.6027ZM73.4334 24.425C73.4334 15.24 78.1084 9.135 87.2384 9.135C98.0184 9.135 100.328 17.11 100.328 25.525L100.163 27.945H83.0034C83.9934 31.025 86.4134 32.51 89.4934 32.51C92.0784 32.51 95.5434 31.74 97.7434 30.805L97.7984 38.285C97.7984 38.285 93.0684 39.715 87.2384 39.715C78.1634 39.715 73.4334 33.61 73.4334 24.425ZM82.6184 21.235H91.7484C91.2534 18.485 89.9334 16.725 87.1834 16.725C84.8184 16.725 83.1684 18.32 82.6184 21.235ZM124.708 9.63V17.66C122.123 16.725 118.218 16.01 115.303 16.01C113.158 16.01 111.563 16.395 111.563 17.44C111.618 20.52 122.178 20.3 125.313 24.535C129.108 29.76 126.523 40.485 114.698 40.43C111.508 40.43 106.613 39.44 103.643 37.46V29.155C107.438 31.3 111.838 32.29 114.973 32.29C117.338 32.29 118.988 31.74 119.098 30.75C119.318 28.935 116.293 28.99 110.353 26.9C98.4184 22.665 101.773 8.31 115.083 8.31C118.823 8.31 121.848 8.805 124.708 9.63ZM131.553 15.955H128.473V9.465C129.958 9.465 133.258 7.1 134.028 2.81H140.573V9.465H146.513V15.955H140.573V28.605C140.573 31.41 142.168 32.235 144.148 32.235C145.468 32.235 146.953 31.85 148.218 31.465V38.505C145.413 39.275 142.993 39.605 141.013 39.605C133.863 39.605 131.553 35.095 131.553 28.055C131.553 27.34 131.553 20.96 131.553 15.955ZM150.583 4.625C150.583 2.425 152.563 0.83 155.588 0.83C158.558 0.83 160.538 2.425 160.538 4.625C160.538 6.935 158.558 8.42 155.588 8.42C152.563 8.42 150.583 6.935 150.583 4.625ZM151.023 39V9.63H160.098V39H151.023ZM164.279 39V9.63H173.354L173.299 15.57C173.574 14.965 176.104 9.025 183.364 9.025C189.249 9.025 191.394 12.545 191.394 19.255V39H182.374C182.264 29.98 182.264 29.925 182.264 21.675C182.264 19.53 181.054 17.495 179.019 17.44C175.774 17.385 173.354 19.585 173.354 25.635V39H164.279ZM198.466 42.355C199.896 43.07 203.086 43.95 206.331 43.95C210.731 43.95 215.186 42.245 215.186 36.03V35.15C213.811 37.295 211.776 39 208.641 39.495C199.566 40.87 194.176 33.445 194.176 24.26C194.176 15.075 199.511 7.98 208.641 9.025C211.776 9.355 213.811 10.95 215.186 12.985V9.52H224.151C224.151 9.52 224.151 27.725 224.151 35.645C224.151 47.03 216.341 52.31 206.551 52.31C203.966 52.31 201.216 51.925 198.466 51.21C198.521 47.965 198.466 42.355 198.466 42.355ZM215.186 23.325C214.801 19.2 211.996 15.845 208.146 16.56C204.241 17.11 203.141 20.905 203.141 24.26C203.141 27.395 204.241 31.025 208.146 31.905C211.941 32.785 214.801 29.65 215.186 25.25V23.325ZM228.142 37.9307C228.142 37.5889 228.249 37.3008 228.464 37.0664C228.688 36.8223 228.991 36.7002 229.372 36.7002C229.763 36.7002 230.07 36.8174 230.295 37.0518C230.52 37.2861 230.632 37.5791 230.632 37.9307C230.632 38.2627 230.52 38.5459 230.295 38.7803C230.07 39.0146 229.763 39.1318 229.372 39.1318C228.991 39.1318 228.688 39.0146 228.464 38.7803C228.249 38.5459 228.142 38.2627 228.142 37.9307ZM241.325 37.7842C242.067 37.7842 242.761 37.6475 243.405 37.374C244.06 37.0908 244.597 36.6758 245.017 36.1289C245.446 35.5723 245.69 34.8936 245.749 34.0928H247.419C247.37 35.0986 247.062 35.9971 246.496 36.7881C245.939 37.5693 245.207 38.1846 244.299 38.6338C243.4 39.0732 242.409 39.293 241.325 39.293C240.222 39.293 239.245 39.0928 238.396 38.6924C237.556 38.292 236.853 37.7354 236.286 37.0225C235.72 36.2998 235.29 35.46 234.997 34.5029C234.714 33.5361 234.572 32.4961 234.572 31.3828V30.7676C234.572 29.6543 234.714 28.6191 234.997 27.6621C235.29 26.6953 235.72 25.8555 236.286 25.1426C236.853 24.4199 237.556 23.8584 238.396 23.458C239.235 23.0576 240.207 22.8574 241.311 22.8574C242.443 22.8574 243.459 23.0869 244.357 23.5459C245.266 24.0049 245.988 24.6543 246.525 25.4941C247.072 26.334 247.37 27.3301 247.419 28.4824H245.749C245.7 27.6328 245.476 26.9004 245.075 26.2852C244.675 25.6699 244.147 25.1963 243.493 24.8643C242.839 24.5322 242.111 24.3662 241.311 24.3662C240.412 24.3662 239.646 24.542 239.011 24.8936C238.376 25.2354 237.858 25.709 237.458 26.3145C237.067 26.9102 236.779 27.5938 236.594 28.3652C236.408 29.127 236.315 29.9277 236.315 30.7676V31.3828C236.315 32.2324 236.403 33.043 236.579 33.8145C236.765 34.5762 237.053 35.2549 237.443 35.8506C237.844 36.4463 238.361 36.9199 238.996 37.2715C239.641 37.6133 240.417 37.7842 241.325 37.7842ZM249.982 31.3242V30.8408C249.982 29.6885 250.148 28.624 250.48 27.6475C250.812 26.6709 251.286 25.8262 251.901 25.1133C252.526 24.4004 253.273 23.8486 254.143 23.458C255.012 23.0576 255.979 22.8574 257.043 22.8574C258.117 22.8574 259.089 23.0576 259.958 23.458C260.827 23.8486 261.574 24.4004 262.199 25.1133C262.824 25.8262 263.303 26.6709 263.635 27.6475C263.967 28.624 264.133 29.6885 264.133 30.8408V31.3242C264.133 32.4766 263.967 33.541 263.635 34.5176C263.303 35.4844 262.824 36.3242 262.199 37.0371C261.584 37.75 260.842 38.3066 259.973 38.707C259.104 39.0977 258.137 39.293 257.072 39.293C255.998 39.293 255.026 39.0977 254.157 38.707C253.288 38.3066 252.541 37.75 251.916 37.0371C251.291 36.3242 250.812 35.4844 250.48 34.5176C250.148 33.541 249.982 32.4766 249.982 31.3242ZM251.726 30.8408V31.3242C251.726 32.1934 251.843 33.0186 252.077 33.7998C252.312 34.5713 252.653 35.2598 253.103 35.8652C253.552 36.4609 254.108 36.9297 254.772 37.2715C255.437 37.6133 256.203 37.7842 257.072 37.7842C257.932 37.7842 258.688 37.6133 259.343 37.2715C260.007 36.9297 260.563 36.4609 261.013 35.8652C261.462 35.2598 261.799 34.5713 262.023 33.7998C262.258 33.0186 262.375 32.1934 262.375 31.3242V30.8408C262.375 29.9814 262.258 29.166 262.023 28.3945C261.799 27.623 261.457 26.9346 260.998 26.3291C260.549 25.7236 259.992 25.2451 259.328 24.8936C258.664 24.542 257.902 24.3662 257.043 24.3662C256.184 24.3662 255.422 24.542 254.758 24.8936C254.104 25.2451 253.547 25.7236 253.088 26.3291C252.639 26.9346 252.297 27.623 252.062 28.3945C251.838 29.166 251.726 29.9814 251.726 30.8408ZM269.421 26.4316V39H267.663V23.1504H269.348L269.421 26.4316ZM269.099 30.0938L268.249 29.6543C268.308 28.7168 268.483 27.8379 268.776 27.0176C269.079 26.1973 269.499 25.4746 270.036 24.8496C270.573 24.2246 271.218 23.7363 271.97 23.3848C272.722 23.0332 273.576 22.8574 274.533 22.8574C275.305 22.8574 276.003 22.9648 276.628 23.1797C277.263 23.3848 277.8 23.7119 278.239 24.1611C278.688 24.6006 279.035 25.1768 279.279 25.8896C279.523 26.6025 279.646 27.457 279.646 28.4531V39H277.902V28.5117C277.902 27.457 277.736 26.6318 277.404 26.0361C277.082 25.4404 276.628 25.0156 276.042 24.7617C275.466 24.5078 274.797 24.3809 274.035 24.3809C273.137 24.3809 272.375 24.5664 271.75 24.9375C271.135 25.2988 270.632 25.7725 270.241 26.3584C269.86 26.9346 269.577 27.5547 269.392 28.2188C269.206 28.873 269.108 29.498 269.099 30.0938ZM279.631 28.7168L278.459 28.7461C278.508 27.9746 278.684 27.2373 278.986 26.5342C279.299 25.8311 279.724 25.2061 280.261 24.6592C280.798 24.1025 281.438 23.6631 282.18 23.3408C282.932 23.0186 283.776 22.8574 284.714 22.8574C285.534 22.8574 286.267 22.9697 286.911 23.1943C287.556 23.4092 288.098 23.7559 288.537 24.2344C288.986 24.7031 289.328 25.3037 289.562 26.0361C289.797 26.7686 289.914 27.6475 289.914 28.6729V39H288.156V28.6582C288.156 27.5352 287.99 26.666 287.658 26.0508C287.336 25.4258 286.887 24.9912 286.311 24.7471C285.734 24.5029 285.061 24.3809 284.289 24.3809C283.527 24.3906 282.858 24.5322 282.282 24.8057C281.706 25.0693 281.223 25.4209 280.832 25.8604C280.451 26.29 280.158 26.7539 279.953 27.252C279.758 27.75 279.65 28.2383 279.631 28.7168Z" fill="black"/>
</svg>
