<svg width="368" height="123" viewBox="0 0 368 123" fill="none" xmlns="http://www.w3.org/2000/svg">
<path d="M7.27612 49.3488H22.9129V2.5741H7.27612V49.3488ZM4.47092 54.6945H25.7213V57.9032H4.47092V54.6945Z" fill="#22A2E7"/>
<path d="M28.378 49.3488H43.8825V27.766L61.2559 49.3488H75.1528V2.5741H59.6516V23.2208L43.0109 2.5741H28.378V49.3488ZM25.7052 54.6945H77.8256V57.9032H25.7052V54.6945ZM96.0771 49.6813H111.042L130.02 2.5741H112.782L103.692 28.8345L94.6051 2.5741H77.0993L96.0771 49.6813ZM77.8353 54.6945H129.288V57.9032H77.8353V54.6945Z" fill="#22A2E7"/>
<path d="M131.954 49.3483H172.179V36.5199H147.323V31.439H170.174V20.1472H147.323V15.4019H171.846V2.57354H131.954V49.3483ZM129.281 54.694H173.719V57.9027H129.281V54.694ZM196.502 50.2166C209.066 50.2166 217.152 44.2027 217.152 34.3797V34.2474C217.152 24.8924 209.134 21.2834 197.171 19.1465C192.161 18.2749 190.956 17.4065 190.956 16.1379V16.0056C190.956 14.8693 192.025 14.0655 194.365 14.0655C198.707 14.0655 203.92 15.4697 208.398 18.6784L216.016 8.11937C210.603 3.84218 203.988 1.7052 194.901 1.7052C182.07 1.7052 175.055 8.58743 175.055 17.4743V17.6067C175.055 27.4975 184.274 30.506 194.766 32.643C199.779 33.6437 201.248 34.3797 201.248 35.7161V35.8517C201.248 37.1203 200.111 37.8563 197.238 37.8563C191.692 37.8563 185.947 36.3166 180.869 32.3751L172.515 42.3305C178.461 47.6116 186.947 50.2166 196.502 50.2166ZM173.719 54.694H218.085V57.9027H173.719V54.694Z" fill="#22A2E7"/>
<path d="M231.049 49.3488H246.683V15.806H260.45V2.5741H217.281V15.806H231.049V49.3488ZM216.413 54.6945H261.319V57.9032H216.413V54.6945Z" fill="#22A2E7"/>
<path d="M286.375 50.3491C300.808 50.3491 311.967 39.5254 311.967 25.961V25.8286C311.967 12.1965 300.94 1.5697 286.507 1.5697C272.075 1.5697 260.915 12.3966 260.915 25.961V26.0934C260.915 39.7255 271.942 50.3491 286.375 50.3491ZM286.507 36.52C280.494 36.52 276.684 31.5068 276.684 25.961V25.8286C276.684 20.3474 280.429 15.402 286.375 15.402C292.389 15.402 296.198 20.4152 296.198 25.961V26.0934C296.198 31.5746 292.457 36.52 286.507 36.52ZM259.311 54.694H313.572V57.9027H259.311V54.694ZM316.257 49.3484H331.894V35.9841H335.235L344.054 49.3484H361.896L351.004 33.4436C356.682 30.7062 360.224 26.0288 360.224 19.1465V19.011C360.224 14.2011 358.823 10.7923 355.95 7.9193C352.673 4.64604 347.463 2.57362 339.109 2.57362H316.257V49.3484ZM331.894 24.8247V15.6699H338.709C342.385 15.6699 344.655 17.1419 344.655 20.1472V20.2796C344.655 23.1558 342.385 24.8247 338.641 24.8247H331.894ZM313.585 54.694H361.36V57.9027H313.585V54.694Z" fill="#22A2E7"/>
<path d="M3.59923 119.075H23.3712L26.2183 111.641H45.5964L48.5211 119.075H68.6093L45.2801 63.3165H26.9317L3.59923 119.075ZM30.8861 98.5121L35.9477 85.0672L41.0093 98.5121H30.8861ZM94.7728 120.26C108.453 120.26 116.285 113.539 120.949 105.314L105.687 96.6915C103.392 100.804 100.545 103.651 95.2474 103.651C89.156 103.651 84.8853 98.5896 84.8853 91.3942V91.2361C84.8853 84.5927 88.9978 79.134 95.2474 79.134C100.309 79.134 103.156 81.823 105.29 85.8581L120.555 76.9196C115.888 68.4588 107.743 62.5256 95.483 62.5256C78.9553 62.5256 66.0624 74.8633 66.0624 91.3942V91.5524C66.0624 108.713 79.4298 120.26 94.7728 120.26ZM151.258 120.182C167.785 120.182 178.78 112.748 178.78 93.8444V63.7136H159.957V94.3996C159.957 101.12 156.477 103.809 151.416 103.809C146.432 103.809 142.874 100.885 142.874 94.0025V63.7136H124.051V94.2414C124.051 112.59 134.807 120.182 151.258 120.182ZM184.623 119.075H202.736V91.6299L215.467 111.324H215.784L228.518 91.6299V119.075H246.944V63.7136H227.647L215.784 83.1691L203.92 63.7136H184.623V119.075ZM253.271 119.075H300.882V103.89H271.461V97.8794H298.509V84.512H271.461V78.8984H300.485V63.7136H253.271V119.075ZM305.853 119.075H324.201V93.528L344.764 119.075H361.215V63.7136H342.866V88.15L323.172 63.7136H305.853V119.075Z" fill="#22A2E7"/>
</svg>
