<svg width="97" height="98" viewBox="0 0 97 98" fill="none" xmlns="http://www.w3.org/2000/svg">
<g clip-path="url(#clip0_106_10397)">
<path d="M0 30.8225H21.6916V97.51H0V30.8225ZM80.7767 31.6046C80.5464 31.5318 80.3281 31.453 80.0856 31.3863C79.7945 31.3204 79.5013 31.2638 79.2066 31.2166C77.9257 30.9547 76.6218 30.8227 75.3144 30.8225C62.6681 30.8225 54.6474 40.0193 52.0041 43.5719V30.8225H30.3125V97.51H52.0041V61.135C52.0041 61.135 68.3971 38.3036 75.3144 55.0725V97.51H97V52.5081C96.991 47.7195 95.3933 43.0693 92.4574 39.2864C89.5215 35.5035 85.4132 32.8017 80.7767 31.6046Z" fill="white"/>
<path d="M10.6094 21.7289C16.4688 21.7289 21.2188 16.979 21.2188 11.1196C21.2188 5.26017 16.4688 0.510193 10.6094 0.510193C4.74998 0.510193 0 5.26017 0 11.1196C0 16.979 4.74998 21.7289 10.6094 21.7289Z" fill="white"/>
</g>
<defs>
<clipPath id="clip0_106_10397">
<rect width="97" height="97" fill="white" transform="translate(0 0.510254)"/>
</clipPath>
</defs>
</svg>
