<svg width="15" height="14" viewBox="0 0 15 14" fill="none" xmlns="http://www.w3.org/2000/svg">
<g id="Linkedin" clip-path="url(#clip0_9_316)">
<path id="Vector" d="M0.941406 2.31776C0.941406 1.8938 1.0898 1.54403 1.38656 1.26846C1.68333 0.992885 2.06914 0.855103 2.54398 0.855103C3.01034 0.855103 3.38765 0.990761 3.67595 1.2621C3.97272 1.54192 4.12111 1.90652 4.12111 2.35592C4.12111 2.76292 3.97696 3.10208 3.68867 3.37343C3.3919 3.65324 3.00185 3.79315 2.51854 3.79315H2.50582C2.03946 3.79315 1.66214 3.65324 1.37385 3.37343C1.08555 3.09361 0.941406 2.74172 0.941406 2.31776ZM1.10675 13.4467V4.95056H3.93032V13.4467H1.10675ZM5.49474 13.4467H8.31831V8.7026C8.31831 8.40582 8.35223 8.17688 8.42006 8.01579C8.53877 7.72749 8.71895 7.48371 8.96061 7.28446C9.20227 7.08519 9.50539 6.98556 9.87 6.98556C10.8197 6.98556 11.2945 7.62574 11.2945 8.9061V13.4467H14.1181V8.57542C14.1181 7.32049 13.8213 6.3687 13.2278 5.72004C12.6342 5.07139 11.8499 4.74706 10.8748 4.74706C9.78097 4.74706 8.92881 5.21765 8.31831 6.15884V6.18428H8.30559L8.31831 6.15884V4.95056H5.49474C5.51169 5.22189 5.52017 6.06556 5.52017 7.4816C5.52017 8.89762 5.51169 10.886 5.49474 13.4467Z" fill="white"/>
</g>
<defs>
<clipPath id="clip0_9_316">
<rect width="13.1767" height="12.5916" fill="white" transform="translate(0.941406 0.854843)"/>
</clipPath>
</defs>
</svg>
