<svg width="97" height="18" viewBox="0 0 97 18" fill="none" xmlns="http://www.w3.org/2000/svg">
<path d="M0.286869 11.9693C0.232392 12.3856 0.150331 12.8019 0 13.2055C0.506159 13.7222 1.71018 14.0126 2.44942 14.0126C4.50233 14.0126 6.17183 12.8267 6.17183 10.847C6.17183 7.88278 1.42331 8.91745 1.42331 6.35683C1.42331 5.37364 2.2853 4.72983 3.3252 4.72983C4.21477 4.72983 4.87195 5.18425 5.18641 5.94055H5.33674C5.46017 5.54969 5.56982 5.15883 5.74773 4.8061C5.2002 4.35168 4.32442 4.1375 3.61276 4.1375C1.80604 4.1375 0.273078 5.00757 0.273078 6.79854C0.273078 9.93878 4.99401 8.80369 4.99401 11.3764C4.99401 12.474 4.11823 13.407 2.90041 13.407C1.72329 13.407 1.053 12.8521 0.464784 11.9693H0.286869ZM13.5339 12.4231C13.1236 12.7892 12.3299 13.3822 11.3031 13.3822C9.48324 13.3822 8.56608 12.045 8.70331 10.4936H10.8245C11.8368 10.4936 12.8636 10.5063 13.8759 10.5317C14.0263 8.21072 12.494 7.12648 10.8245 7.12648C8.57988 7.12648 7.37654 8.6143 7.37654 10.5445C7.37654 12.7009 8.85364 13.9618 10.9341 13.9618C11.8513 13.9618 12.7809 13.6338 13.5201 13.1419L13.5339 12.4238V12.4231ZM8.70331 9.97627C8.79917 8.8164 9.41497 7.55484 10.8245 7.55484C12.3161 7.55484 12.6719 8.76619 12.7126 9.97627H8.70331ZM21.2104 12.4231C20.8001 12.7892 20.0064 13.3822 18.9803 13.3822C17.1598 13.3822 16.2433 12.045 16.3805 10.4936H18.501C19.514 10.4936 20.5401 10.5063 21.5531 10.5317C21.7035 8.21072 20.1705 7.12648 18.501 7.12648C16.2571 7.12648 15.0531 8.6143 15.0531 10.5445C15.0531 12.7009 16.5308 13.9618 18.6107 13.9618C19.5278 13.9618 20.4581 13.6338 21.1966 13.1419L21.2104 12.4238V12.4231ZM16.3798 9.97627C16.4764 8.8164 17.0915 7.55484 18.501 7.55484C19.9926 7.55484 20.3491 8.76619 20.3898 9.97627H16.3798ZM24.0157 3.41934C23.7833 3.43205 23.6054 3.45747 23.4136 3.45747C23.2088 3.45747 23.0033 3.43205 22.8116 3.41934V13.8487C23.0033 13.8359 23.2088 13.8112 23.4136 13.8112C23.6054 13.8112 23.7833 13.8366 24.0157 13.8493V11.0116C24.0157 10.4186 24.2212 10.3684 24.5632 10.7211C25.5217 11.7304 26.712 12.9665 27.4367 13.8493C27.6836 13.8366 27.916 13.8112 28.1897 13.8112C28.4359 13.8112 28.6414 13.8366 28.9283 13.8493V13.773C27.7381 12.5248 26.4789 11.1374 25.3838 9.97754C26.7664 8.76683 28.0939 7.79571 28.6959 7.3038V7.20211C28.4635 7.21482 28.2856 7.24024 28.1077 7.24024C27.9022 7.24024 27.6974 7.21482 27.5057 7.20211L26.3285 8.40075L25.3976 9.27145C25.2066 9.4475 24.3991 10.2419 24.0846 10.0913C23.9474 10.015 24.0157 9.81357 24.0157 9.63689V3.4187V3.41934ZM31.255 7.21546C31.0226 7.22817 30.8447 7.25359 30.653 7.25359C30.4475 7.25359 30.2427 7.22817 30.0509 7.21546V13.8493C30.2427 13.8366 30.4475 13.8112 30.653 13.8112C30.8447 13.8112 31.0357 13.8366 31.255 13.8493V7.21482V7.21546ZM31.4191 4.83216C31.4191 4.44066 31.0633 4.12543 30.653 4.12543C30.5523 4.12535 30.4527 4.14355 30.3597 4.17901C30.2667 4.21446 30.1822 4.26647 30.111 4.33205C30.0399 4.39764 29.9834 4.47551 29.945 4.56121C29.9065 4.64692 29.8867 4.73877 29.8868 4.83152C29.8867 4.92422 29.9065 5.01602 29.9449 5.10168C29.9833 5.18735 30.0397 5.26519 30.1108 5.33077C30.1819 5.39634 30.2663 5.44836 30.3592 5.48385C30.4521 5.51935 30.5517 5.53761 30.6523 5.53761C31.0495 5.55033 31.4191 5.22238 31.4191 4.83216ZM32.5411 13.8493C32.7328 13.8366 32.9383 13.8112 33.1431 13.8112C33.3348 13.8112 33.5265 13.8366 33.7458 13.8493V10.6334C33.7458 8.93016 34.1423 7.85863 35.7159 7.85863C37.1255 7.85863 37.3854 8.86724 37.3854 10.1663V13.8493C37.5771 13.8366 37.7826 13.8112 37.9874 13.8112C38.1791 13.8112 38.3708 13.8366 38.5895 13.8493V9.839C38.5895 8.00989 37.9192 7.12712 36.1676 7.12712C35.1001 7.12712 34.2657 7.63174 33.7458 8.47638V7.21546C33.5265 7.22817 33.3348 7.25359 33.1431 7.25359C32.9383 7.25359 32.7328 7.22817 32.5411 7.21546V13.8493ZM42.8042 13.7355C43.94 13.7355 45.0212 13.8366 45.0212 15.2742C45.0212 16.5732 43.7214 17.0525 42.6401 17.0525C41.3947 17.0525 40.4782 16.4976 40.4782 15.3746C40.4644 14.2529 41.2306 13.7228 42.8042 13.7355ZM45.9929 7.16461C45.6371 7.21546 45.2674 7.24088 44.9116 7.19004L42.818 7.11441C40.6148 7.03814 39.7804 7.97239 39.7804 9.32166C39.7804 10.343 40.341 10.9232 41.2444 11.3014C40.6562 11.541 40.2045 11.8314 40.2045 12.4994C40.2045 13.3447 40.6837 13.5589 41.1216 13.6224V13.7355C40.1907 13.8868 39.5611 14.4168 39.5611 15.4134C39.5611 16.8758 41.0527 17.456 42.285 17.456C44.5834 17.456 46.1163 16.3464 46.1163 14.7194C46.1163 13.5341 45.2819 12.8782 43.5166 12.8782H42.558C41.6547 12.8782 41.1078 12.7892 41.1078 12.2096C41.1078 11.4024 42.0112 11.541 42.1884 11.541C43.94 11.541 45.3909 10.8978 45.3909 9.38458C45.3909 8.60286 44.9668 7.99718 44.351 7.55611L46.006 7.68195V7.16461H45.9929ZM40.9161 9.32166C40.9161 8.2622 41.5319 7.50527 42.6125 7.50527C43.8034 7.50527 44.2275 8.32512 44.2275 9.39729C44.2275 10.343 43.6531 11.213 42.5587 11.213C41.4637 11.213 40.8748 10.3055 40.9161 9.32166ZM55.7361 4.13814H55.3941L50.6869 13.8493C50.851 13.8366 51.0152 13.8112 51.22 13.8112C51.3979 13.8112 51.5627 13.8366 51.7813 13.8493C52.2054 12.5502 52.7398 11.3262 53.2729 10.1034H57.1042C57.7069 11.3643 58.2538 12.7015 58.6917 13.8493C58.9517 13.8366 59.1985 13.8112 59.4854 13.8112C59.7454 13.8112 59.9785 13.8366 60.2653 13.8493L55.7368 4.1375L55.7361 4.13814ZM56.8581 9.51042H53.5467L55.1886 5.9539L56.8581 9.51042ZM61.3742 13.8493C61.5659 13.8366 61.7707 13.8112 61.9762 13.8112C62.1679 13.8112 62.3596 13.8366 62.5782 13.8493V3.4187C62.3458 3.43141 62.1679 3.45683 61.9762 3.45683C61.7707 3.45683 61.5659 3.43141 61.3742 3.4187V13.848V13.8493ZM65.069 10.7091C65.069 9.42208 65.5207 7.59361 67.2722 7.59361C68.9004 7.59361 69.3521 8.99372 69.3521 10.3557C69.3521 11.97 68.8045 13.3701 67.2853 13.3701C65.7393 13.3828 65.069 12.1969 65.069 10.7091ZM65.069 12.6259H65.0966C65.589 13.4839 66.3275 13.9624 67.4088 13.9624C69.3383 13.9624 70.6657 12.5877 70.6657 10.3176C70.6657 8.65306 69.5844 7.13983 67.6412 7.13983C65.8214 7.13983 65.3559 8.14844 65.0966 8.62764H65.069V7.22817C64.8359 7.24088 64.658 7.2663 64.467 7.2663C64.2615 7.2663 64.056 7.24088 63.8643 7.22817V17.4185C64.056 17.4058 64.2615 17.3804 64.467 17.3804C64.658 17.3804 64.8359 17.4058 65.069 17.4185V12.6259ZM71.9518 13.8493C72.1435 13.8366 72.349 13.8112 72.5538 13.8112C72.7455 13.8112 72.9372 13.8366 73.1565 13.8493V10.078C73.1565 8.62764 73.7723 7.85863 75.1267 7.85863C76.4128 7.85863 76.7962 8.62764 76.7962 10.1663V13.8493C76.9879 13.8366 77.1934 13.8112 77.3982 13.8112C77.5899 13.8112 77.7816 13.8366 78.0002 13.8493V9.839C78.0002 8.08552 77.3161 7.12712 75.5784 7.12712C74.5109 7.12712 73.6765 7.63174 73.1565 8.47638V3.4187C72.9234 3.43141 72.7455 3.45683 72.5538 3.45683C72.349 3.45683 72.1435 3.43141 71.9518 3.4187V13.848V13.8493ZM84.6375 9.46021C84.6375 7.89676 83.7755 7.12712 82.2012 7.12712C81.3116 7.12712 80.5048 7.42964 79.7793 7.89613V8.67785H79.9435C80.0531 8.37533 80.6413 7.72008 81.7364 7.72008C82.8721 7.72008 83.5017 8.31241 83.5017 9.34708C83.5017 10.015 83.0907 10.0907 81.9005 10.2801C80.4772 10.4942 79.1091 10.6963 79.1091 12.2852C79.1091 13.3065 80.04 13.9758 81.1068 13.9758C82.0102 13.9758 82.708 13.6853 83.3376 13.1051L83.4742 12.9786C83.5976 13.7985 84.2403 13.9122 85.0202 13.7857C85.185 13.7603 85.3623 13.6853 85.4719 13.6472V13.3447C84.5823 13.5214 84.6237 13.2436 84.6237 12.7015V9.46021H84.6375ZM83.4328 12.4238C83.4328 12.5255 83.1321 12.7517 83.0225 12.8528C82.7349 13.1178 82.2294 13.3828 81.8185 13.3828C80.9013 13.3828 80.3407 12.9538 80.3407 12.0837C80.3407 10.8222 81.8729 10.6836 82.899 10.4949L83.4197 10.3932V12.4231H83.4335L83.4328 12.4238Z" fill="#111416"/>
<path d="M87.4152 4.13741C87.4152 6.0288 88.4413 7.59288 89.8101 7.55538C91.7258 7.50454 92.2871 6.01672 92.2871 4.1247C92.2871 2.23268 91.1783 0.681942 89.8101 0.694017C88.1268 0.706728 87.4152 2.24539 87.4152 4.13741ZM85.9236 4.13741C86.2112 0.0889765 89.6598 0 89.6598 0C92.1637 0.0127109 92.8753 2.47228 92.8753 2.47228C92.9167 2.61146 94.3669 0.177318 94.3669 0.177318H95.1876C93.505 3.51902 93.5732 4.88164 93.5732 4.88164C93.436 6.68468 94.5311 7.30307 94.5311 7.30307C95.5572 7.90811 95.6261 6.14256 95.6261 6.14256C95.8585 6.06629 95.9951 5.9913 95.9951 5.9913C96.5426 8.43816 94.9007 8.27418 94.9007 8.27418C93.6277 8.40002 93.0802 6.48321 93.0802 6.48321C91.2741 8.67776 89.1943 8.19855 89.1943 8.19855C85.636 7.79498 85.9236 4.13741 85.9236 4.13741Z" fill="#FF7200"/>
</svg>
