<svg width="83" height="15" viewBox="0 0 83 15" fill="none" xmlns="http://www.w3.org/2000/svg">
<path d="M0.650119 11V0.164689H3.18868V11H0.650119ZM4.38092 11V2.73421H6.93496L6.91948 4.40594C6.99688 4.23567 7.70891 2.56394 9.75214 2.56394C11.4084 2.56394 12.0121 3.55459 12.0121 5.44303V11H9.47352C9.44256 8.46144 9.44256 8.44596 9.44256 6.12411C9.44256 5.52043 9.10202 4.9477 8.5293 4.93223C7.61604 4.91675 6.93496 5.53591 6.93496 7.2386V11H4.38092ZM15.0858 11L12.702 2.70325H15.3489L16.8658 7.98159L18.5221 2.70325H21.1845L18.5995 11H15.0858ZM21.2297 6.89806C21.2297 4.31307 22.5454 2.59489 25.1149 2.59489C28.1488 2.59489 28.7989 4.83935 28.7989 7.20764L28.7525 7.88872H23.9231C24.2017 8.75554 24.8828 9.17348 25.7496 9.17348C26.4771 9.17348 27.4523 8.95677 28.0714 8.69363L28.0869 10.7988C28.0869 10.7988 26.7557 11.2012 25.1149 11.2012C22.5609 11.2012 21.2297 9.48306 21.2297 6.89806ZM23.8147 6.00028H26.3842C26.2449 5.22633 25.8734 4.731 25.0995 4.731C24.4339 4.731 23.9695 5.17989 23.8147 6.00028ZM35.6604 2.73421V4.99414C34.9329 4.731 33.8339 4.52977 33.0135 4.52977C32.4098 4.52977 31.9609 4.63812 31.9609 4.93223C31.9764 5.79905 34.9484 5.73714 35.8307 6.92902C36.8987 8.39953 36.1712 11.4179 32.8432 11.4025C31.9454 11.4025 30.5678 11.1238 29.7319 10.5666V8.22926C30.8 8.83294 32.0383 9.11156 32.9206 9.11156C33.5862 9.11156 34.0506 8.95677 34.0815 8.67815C34.1434 8.16734 33.2921 8.18282 31.6204 7.59462C28.2614 6.40273 29.2056 2.36271 32.9516 2.36271C34.0041 2.36271 34.8555 2.50202 35.6604 2.73421ZM37.5867 4.51429H36.7198V2.68777C37.1378 2.68777 38.0665 2.02217 38.2832 0.814808H40.1252V2.68777H41.797V4.51429H40.1252V8.07447C40.1252 8.8639 40.5741 9.09608 41.1314 9.09608C41.5029 9.09608 41.9208 8.98773 42.2768 8.87937V10.8607C41.4874 11.0774 40.8063 11.1703 40.2491 11.1703C38.2368 11.1703 37.5867 9.90099 37.5867 7.91968C37.5867 7.71845 37.5867 5.92288 37.5867 4.51429ZM42.9424 1.32562C42.9424 0.706455 43.4997 0.257564 44.351 0.257564C45.1869 0.257564 45.7441 0.706455 45.7441 1.32562C45.7441 1.97573 45.1869 2.39367 44.351 2.39367C43.4997 2.39367 42.9424 1.97573 42.9424 1.32562ZM43.0662 11V2.73421H45.6203V11H43.0662ZM46.797 11V2.73421H49.3511L49.3356 4.40594C49.413 4.23567 50.125 2.56394 52.1683 2.56394C53.8245 2.56394 54.4282 3.55459 54.4282 5.44303V11H51.8896C51.8587 8.46144 51.8587 8.44596 51.8587 6.12411C51.8587 5.52043 51.5181 4.9477 50.9454 4.93223C50.0322 4.91675 49.3511 5.53591 49.3511 7.2386V11H46.797ZM56.4183 11.9442C56.8208 12.1454 57.7186 12.3931 58.6318 12.3931C59.8702 12.3931 61.124 11.9133 61.124 10.1641V9.91647C60.737 10.5202 60.1643 11 59.282 11.1393C56.7279 11.5263 55.211 9.43662 55.211 6.85162C55.211 4.26663 56.7124 2.26984 59.282 2.56394C60.1643 2.65681 60.737 3.1057 61.124 3.67843V2.70325H63.647C63.647 2.70325 63.647 7.8268 63.647 10.0558C63.647 13.2599 61.449 14.7459 58.6938 14.7459C57.9662 14.7459 57.1923 14.6376 56.4183 14.4363C56.4338 13.5231 56.4183 11.9442 56.4183 11.9442ZM61.124 6.58848C61.0156 5.42755 60.2262 4.48333 59.1427 4.68456C58.0436 4.83935 57.7341 5.9074 57.7341 6.85162C57.7341 7.73393 58.0436 8.75554 59.1427 9.00321C60.2107 9.25087 61.0156 8.36857 61.124 7.13025V6.58848ZM64.7703 10.699C64.7703 10.6029 64.8005 10.5218 64.861 10.4558C64.9242 10.3871 65.0094 10.3528 65.1166 10.3528C65.2265 10.3528 65.3131 10.3857 65.3763 10.4517C65.4395 10.5177 65.4711 10.6001 65.4711 10.699C65.4711 10.7925 65.4395 10.8722 65.3763 10.9382C65.3131 11.0041 65.2265 11.0371 65.1166 11.0371C65.0094 11.0371 64.9242 11.0041 64.861 10.9382C64.8005 10.8722 64.7703 10.7925 64.7703 10.699ZM68.4806 10.6578C68.6895 10.6578 68.8846 10.6193 69.066 10.5424C69.2502 10.4627 69.4013 10.3459 69.5195 10.192C69.6404 10.0353 69.7092 9.8443 69.7257 9.61893H70.1956C70.1819 9.90201 70.0953 10.1549 69.9359 10.3775C69.7792 10.5974 69.5731 10.7705 69.3175 10.8969C69.0647 11.0206 68.7857 11.0825 68.4806 11.0825C68.1701 11.0825 67.8952 11.0261 67.6561 10.9134C67.4197 10.8007 67.2219 10.6441 67.0624 10.4434C66.903 10.2401 66.7821 10.0037 66.6997 9.73436C66.62 9.46227 66.5801 9.16956 66.5801 8.85624V8.68309C66.5801 8.36978 66.62 8.07845 66.6997 7.8091C66.7821 7.53701 66.903 7.30065 67.0624 7.10001C67.2219 6.89663 67.4197 6.7386 67.6561 6.62591C67.8925 6.51323 68.1659 6.45689 68.4765 6.45689C68.7953 6.45689 69.0811 6.52147 69.334 6.65065C69.5896 6.77982 69.793 6.96259 69.9441 7.19896C70.0981 7.43532 70.1819 7.71566 70.1956 8.03997H69.7257C69.7119 7.80086 69.6487 7.59473 69.536 7.42158C69.4233 7.24843 69.2749 7.11513 69.0908 7.02168C68.9066 6.92824 68.7019 6.88152 68.4765 6.88152C68.2236 6.88152 68.0079 6.93099 67.8293 7.02993C67.6506 7.12612 67.5049 7.25942 67.3923 7.42982C67.2823 7.59748 67.2012 7.78986 67.149 8.00699C67.0968 8.22136 67.0707 8.44673 67.0707 8.68309V8.85624C67.0707 9.09536 67.0954 9.32347 67.1449 9.5406C67.1971 9.75497 67.2782 9.94599 67.3881 10.1136C67.5008 10.2813 67.6465 10.4146 67.8251 10.5135C68.0065 10.6097 68.225 10.6578 68.4806 10.6578ZM70.9171 8.83975V8.70371C70.9171 8.3794 70.9638 8.07982 71.0572 7.80498C71.1507 7.53014 71.284 7.2924 71.4571 7.09177C71.633 6.89114 71.8433 6.73585 72.0879 6.62591C72.3325 6.51323 72.6046 6.45689 72.9042 6.45689C73.2065 6.45689 73.48 6.51323 73.7246 6.62591C73.9692 6.73585 74.1794 6.89114 74.3553 7.09177C74.5312 7.2924 74.6659 7.53014 74.7594 7.80498C74.8528 8.07982 74.8995 8.3794 74.8995 8.70371V8.83975C74.8995 9.16407 74.8528 9.46364 74.7594 9.73848C74.6659 10.0106 74.5312 10.2469 74.3553 10.4476C74.1822 10.6482 73.9733 10.8049 73.7287 10.9175C73.4841 11.0275 73.212 11.0825 72.9124 11.0825C72.6101 11.0825 72.3366 11.0275 72.092 10.9175C71.8474 10.8049 71.6372 10.6482 71.4613 10.4476C71.2854 10.2469 71.1507 10.0106 71.0572 9.73848C70.9638 9.46364 70.9171 9.16407 70.9171 8.83975ZM71.4077 8.70371V8.83975C71.4077 9.08436 71.4407 9.3166 71.5066 9.53647C71.5726 9.7536 71.6688 9.94736 71.7952 10.1178C71.9216 10.2854 72.0783 10.4173 72.2652 10.5135C72.4521 10.6097 72.6678 10.6578 72.9124 10.6578C73.1543 10.6578 73.3673 10.6097 73.5514 10.5135C73.7383 10.4173 73.895 10.2854 74.0214 10.1178C74.1478 9.94736 74.2427 9.7536 74.3059 9.53647C74.3718 9.3166 74.4048 9.08436 74.4048 8.83975V8.70371C74.4048 8.46185 74.3718 8.23236 74.3059 8.01523C74.2427 7.79811 74.1465 7.60435 74.0173 7.43394C73.8909 7.26354 73.7342 7.12887 73.5473 7.02993C73.3604 6.93099 73.146 6.88152 72.9042 6.88152C72.6623 6.88152 72.4479 6.93099 72.2611 7.02993C72.0769 7.12887 71.9202 7.26354 71.7911 7.43394C71.6646 7.60435 71.5685 7.79811 71.5025 8.01523C71.4393 8.23236 71.4077 8.46185 71.4077 8.70371ZM76.3878 7.4628V11H75.8931V6.53934H76.3672L76.3878 7.4628ZM76.2971 8.49345L76.058 8.36978C76.0745 8.10593 76.1239 7.85857 76.2064 7.62771C76.2916 7.39684 76.4098 7.19346 76.5609 7.01756C76.7121 6.84166 76.8935 6.70424 77.1051 6.6053C77.3167 6.50636 77.5572 6.45689 77.8266 6.45689C78.0437 6.45689 78.2402 6.48712 78.4161 6.54758C78.5948 6.6053 78.7459 6.69737 78.8696 6.8238C78.996 6.94748 79.0936 7.10963 79.1623 7.31027C79.231 7.5109 79.2654 7.75139 79.2654 8.03172V11H78.7748V8.04821C78.7748 7.75139 78.7281 7.51915 78.6346 7.35149C78.5439 7.18384 78.4161 7.06428 78.2512 6.99283C78.089 6.92137 77.9008 6.88564 77.6864 6.88564C77.4336 6.88564 77.2192 6.93786 77.0433 7.0423C76.8701 7.14399 76.7286 7.27729 76.6187 7.44219C76.5115 7.60435 76.4318 7.77887 76.3795 7.96576C76.3273 8.1499 76.2998 8.3258 76.2971 8.49345ZM79.2612 8.10593L78.9314 8.11418C78.9452 7.89705 78.9946 7.68955 79.0798 7.49166C79.1678 7.29378 79.2874 7.11788 79.4385 6.96397C79.5897 6.80731 79.7697 6.68363 79.9786 6.59293C80.1902 6.50224 80.4279 6.45689 80.6918 6.45689C80.9227 6.45689 81.1288 6.48849 81.3102 6.55171C81.4916 6.61217 81.6441 6.70974 81.7678 6.84441C81.8942 6.97634 81.9904 7.14536 82.0564 7.35149C82.1223 7.55762 82.1553 7.80498 82.1553 8.09356V11H81.6606V8.08944C81.6606 7.77337 81.6139 7.52876 81.5204 7.35562C81.4297 7.17972 81.3033 7.05741 81.1412 6.9887C80.979 6.91999 80.7894 6.88564 80.5722 6.88564C80.3579 6.88839 80.1696 6.92824 80.0074 7.00519C79.8453 7.0794 79.7092 7.17834 79.5993 7.30202C79.4921 7.42295 79.4097 7.5535 79.3519 7.69367C79.297 7.83384 79.2667 7.97126 79.2612 8.10593Z" fill="black"/>
</svg>
