<svg width="45" height="15" viewBox="0 0 45 15" fill="none" xmlns="http://www.w3.org/2000/svg">
<g clip-path="url(#clip0_62_1353)">
<path d="M0.88975 5.99366H2.80186V0.273926H0.88975V5.99366ZM0.546722 6.64735H3.14528V7.03972H0.546722V6.64735Z" fill="#22A2E7"/>
<path d="M3.47015 5.99366H5.36607V3.35445L7.49055 5.99366H9.18989V0.273926H7.29436V2.79866L5.25949 0.273926H3.47015V5.99366ZM3.14331 6.64735H9.51673V7.03972H3.14331V6.64735ZM11.7486 6.03432H13.5786L15.8992 0.273926H13.7913L12.6798 3.48511L11.5686 0.273926H9.42792L11.7486 6.03432ZM9.51792 6.64735H15.8096V7.03972H9.51792V6.64735Z" fill="#22A2E7"/>
<path d="M16.1356 5.99389H21.0545V4.4252H18.015V3.80389H20.8093V2.4231H18.015V1.84284H21.0138V0.274152H16.1356V5.99389ZM15.8088 6.64757H21.2428V7.03994H15.8088V6.64757ZM24.0288 6.10007C25.5651 6.10007 26.5539 5.36468 26.5539 4.16349V4.14731C26.5539 3.00336 25.5734 2.56205 24.1105 2.30073C23.4979 2.19415 23.3506 2.08797 23.3506 1.93283V1.91665C23.3506 1.77771 23.4813 1.67941 23.7675 1.67941C24.2984 1.67941 24.9359 1.85113 25.4834 2.24349L26.415 0.952311C25.753 0.429284 24.9442 0.167969 23.833 0.167969C22.2639 0.167969 21.4062 1.00955 21.4062 2.09626V2.11244C21.4062 3.32191 22.5335 3.68981 23.8164 3.95113C24.4295 4.0735 24.6091 4.16349 24.6091 4.32691V4.34349C24.6091 4.49862 24.4701 4.58863 24.1188 4.58863C23.4406 4.58863 22.738 4.40034 22.1171 3.91836L21.0955 5.13573C21.8226 5.78152 22.8604 6.10007 24.0288 6.10007ZM21.2428 6.64757H26.668V7.03994H21.2428V6.64757Z" fill="#22A2E7"/>
<path d="M28.2533 5.99366H30.165V1.89195H31.8486V0.273926H26.5697V1.89195H28.2533V5.99366ZM26.4636 6.64735H31.9548V7.03972H26.4636V6.64735Z" fill="#22A2E7"/>
<path d="M35.0187 6.11624C36.7836 6.11624 38.1482 4.79268 38.1482 3.134V3.11781C38.1482 1.45084 36.7998 0.151367 35.0349 0.151367C33.27 0.151367 31.9054 1.47531 31.9054 3.134V3.15018C31.9054 4.81716 33.2538 6.11624 35.0187 6.11624ZM35.0349 4.42518C34.2995 4.42518 33.8337 3.81216 33.8337 3.134V3.11781C33.8337 2.44755 34.2916 1.84281 35.0187 1.84281C35.7541 1.84281 36.2199 2.45584 36.2199 3.134V3.15018C36.2199 3.82045 35.7624 4.42518 35.0349 4.42518ZM31.7092 6.64755H38.3444V7.03992H31.7092V6.64755ZM38.6728 5.99387H40.5849V4.35965H40.9934L42.0719 5.99387H44.2536L42.9217 4.049C43.6161 3.71426 44.0491 3.14229 44.0491 2.30071V2.28413C44.0491 1.69597 43.8778 1.27913 43.5265 0.927813C43.1258 0.527549 42.4887 0.274129 41.4671 0.274129H38.6728V5.99387ZM40.5849 2.99505V1.87558H41.4182C41.8678 1.87558 42.1453 2.05558 42.1453 2.42308V2.43926C42.1453 2.79097 41.8678 2.99505 41.4099 2.99505H40.5849ZM38.3459 6.64755H44.188V7.03992H38.3459V6.64755Z" fill="#22A2E7"/>
<path d="M0.440094 14.52H2.85786L3.20601 13.6109H5.57562L5.93325 14.52H8.3897L5.53693 7.70169H3.29325L0.440094 14.52ZM3.7768 12.0055L4.39575 10.3614L5.0147 12.0055H3.7768ZM11.589 14.6648C13.2619 14.6648 14.2196 13.843 14.79 12.8372L12.9236 11.7829C12.643 12.2858 12.2948 12.6339 11.6471 12.6339C10.9022 12.6339 10.38 12.015 10.38 11.1351V11.1158C10.38 10.3034 10.8829 9.6359 11.6471 9.6359C12.266 9.6359 12.6142 9.96472 12.8751 10.4581L14.7418 9.36511C14.171 8.33051 13.1751 7.60498 11.6759 7.60498C9.65483 7.60498 8.07825 9.11366 8.07825 11.1351V11.1544C8.07825 13.2529 9.71285 14.6648 11.589 14.6648ZM18.4961 14.6554C20.5172 14.6554 21.8617 13.7463 21.8617 11.4347V7.75024H19.56V11.5026C19.56 12.3245 19.1344 12.6533 18.5155 12.6533C17.906 12.6533 17.471 12.2956 17.471 11.4541V7.75024H15.1693V11.4833C15.1693 13.727 16.4846 14.6554 18.4961 14.6554ZM22.5761 14.52H24.791V11.1639L26.3479 13.5722H26.3865L27.9438 11.1639V14.52H30.1969V7.75024H27.8372L26.3865 10.1293L24.9359 7.75024H22.5761V14.52ZM30.9706 14.52H36.7926V12.6631H33.195V11.9281H36.5025V10.2935H33.195V9.60708H36.744V7.75024H30.9706V14.52ZM37.4005 14.52H39.6442V11.396L42.1586 14.52H44.1702V7.75024H41.9265V10.7384L39.5182 7.75024H37.4005V14.52Z" fill="#22A2E7"/>
</g>
<defs>
<clipPath id="clip0_62_1353">
<rect width="45" height="15" fill="white"/>
</clipPath>
</defs>
</svg>
