<svg width="351" height="67" viewBox="0 0 351 67" fill="none" xmlns="http://www.w3.org/2000/svg">
<path d="M1.10301 45.7123C0.904973 47.2256 0.606664 48.7388 0.0601807 50.2059C1.90017 52.0842 6.27705 53.14 8.96434 53.14C16.4271 53.14 22.4961 48.8289 22.4961 41.6322C22.4961 30.8568 5.23422 34.618 5.23422 25.3096C5.23422 21.7355 8.36772 19.3951 12.148 19.3951C15.3818 19.3951 17.7707 21.047 18.9138 23.7964H19.4603C19.909 22.3755 20.3076 20.9546 20.9544 19.6724C18.964 18.0205 15.7803 17.2419 13.1933 17.2419C6.6255 17.2419 1.05287 20.4048 1.05287 26.9153C1.05287 38.3307 18.2144 34.2045 18.2144 43.5567C18.2144 47.5467 15.0308 50.9383 10.6038 50.9383C6.32468 50.9383 3.88807 48.9214 1.74977 45.7123H1.10301ZM49.2587 47.3619C47.7671 48.6926 44.8818 50.8482 41.1492 50.8482C34.5337 50.8482 31.1997 45.9872 31.6985 40.3477H39.4095C43.0894 40.3477 46.8221 40.3939 50.5021 40.4863C51.0485 32.0489 45.4784 28.1075 39.4095 28.1075C31.2498 28.1075 26.8754 33.516 26.8754 40.5325C26.8754 48.3715 32.245 52.9552 39.808 52.9552C43.1421 52.9552 46.5213 51.7631 49.2085 49.9749L49.2587 47.3642V47.3619ZM31.6985 38.467C32.047 34.2507 34.2856 29.6646 39.4095 29.6646C44.8317 29.6646 46.1252 34.0681 46.2731 38.467H31.6985ZM77.1644 47.3619C75.6729 48.6926 72.7875 50.8482 69.0574 50.8482C62.4395 50.8482 59.1079 45.9872 59.6068 40.3477H67.3152C70.9977 40.3477 74.7278 40.3939 78.4103 40.4863C78.9568 32.0489 73.3842 28.1075 67.3152 28.1075C59.1581 28.1075 54.7812 33.516 54.7812 40.5325C54.7812 48.3715 60.1533 52.9552 67.7138 52.9552C71.0478 52.9552 74.4295 51.7631 77.1143 49.9749L77.1644 47.3642V47.3619ZM59.6043 38.467C59.9552 34.2507 62.1913 29.6646 67.3152 29.6646C72.7374 29.6646 74.0334 34.0681 74.1813 38.467H59.6043ZM87.3621 14.6312C86.5173 14.6774 85.8705 14.7698 85.1737 14.7698C84.4291 14.7698 83.6821 14.6774 82.9852 14.6312V52.544C83.6821 52.4978 84.4291 52.4077 85.1737 52.4077C85.8705 52.4077 86.5173 52.5001 87.3621 52.5463V42.2306C87.3621 40.075 88.1091 39.8925 89.3525 41.1748C92.837 44.8436 97.1637 49.3372 99.7983 52.5463C100.696 52.5001 101.541 52.4077 102.536 52.4077C103.431 52.4077 104.178 52.5001 105.221 52.5463V52.269C100.894 47.7315 96.3164 42.688 92.3356 38.4717C97.3617 34.0705 102.187 30.5403 104.376 28.752V28.3824C103.531 28.4286 102.884 28.521 102.237 28.521C101.49 28.521 100.746 28.4286 100.049 28.3824L95.7699 32.7397L92.3857 35.9049C91.6913 36.5448 88.7559 39.4328 87.6128 38.8852C87.1139 38.608 87.3621 37.8756 87.3621 37.2333V14.6289V14.6312ZM113.679 28.4309C112.834 28.4771 112.187 28.5695 111.49 28.5695C110.743 28.5695 109.999 28.4771 109.302 28.4309V52.5463C109.999 52.5001 110.743 52.4077 111.49 52.4077C112.187 52.4077 112.881 52.5001 113.679 52.5463V28.4286V28.4309ZM114.275 19.7671C114.275 18.3439 112.982 17.198 111.49 17.198C111.124 17.1977 110.762 17.2639 110.424 17.3928C110.086 17.5217 109.779 17.7107 109.52 17.9491C109.261 18.1875 109.056 18.4706 108.916 18.7822C108.776 19.0937 108.705 19.4276 108.705 19.7648C108.705 20.1018 108.776 20.4355 108.916 20.7469C109.056 21.0583 109.261 21.3413 109.519 21.5797C109.778 21.818 110.084 22.0071 110.422 22.1362C110.76 22.2652 111.122 22.3316 111.488 22.3316C112.931 22.3778 114.275 21.1857 114.275 19.7671ZM118.354 52.5463C119.051 52.5001 119.798 52.4077 120.542 52.4077C121.239 52.4077 121.936 52.5001 122.733 52.5463V40.8559C122.733 34.6642 124.174 30.769 129.895 30.769C135.019 30.769 135.964 34.4355 135.964 39.1578V52.5463C136.661 52.5001 137.408 52.4077 138.152 52.4077C138.849 52.4077 139.546 52.5001 140.341 52.5463V37.968C140.341 31.3188 137.904 28.1098 131.537 28.1098C127.656 28.1098 124.623 29.9442 122.733 33.0146V28.4309C121.936 28.4771 121.239 28.5695 120.542 28.5695C119.798 28.5695 119.051 28.4771 118.354 28.4309V52.5463ZM155.662 52.1327C159.791 52.1327 163.722 52.5001 163.722 57.7261C163.722 62.4484 158.996 64.1904 155.066 64.1904C150.539 64.1904 147.207 62.1735 147.207 58.0911C147.157 54.0134 149.942 52.0865 155.662 52.1327ZM167.254 28.2461C165.96 28.4309 164.617 28.5233 163.323 28.3385L155.713 28.0636C147.703 27.7863 144.67 31.1825 144.67 36.0874C144.67 39.8001 146.708 41.9095 149.992 43.2841C147.854 44.1551 146.212 45.2109 146.212 47.6391C146.212 50.7119 147.954 51.4905 149.546 51.7215V52.1327C146.162 52.6826 143.873 54.6094 143.873 58.232C143.873 63.5482 149.295 65.6575 153.775 65.6575C162.13 65.6575 167.703 61.6236 167.703 55.7092C167.703 51.4004 164.669 49.0161 158.252 49.0161H154.768C151.484 49.0161 149.496 48.6926 149.496 46.5856C149.496 43.6515 152.78 44.1551 153.424 44.1551C159.791 44.1551 165.065 41.817 165.065 36.3161C165.065 33.4744 163.524 31.2726 161.285 29.6693L167.301 30.1267V28.2461H167.254ZM148.799 36.0874C148.799 32.236 151.037 29.4844 154.966 29.4844C159.295 29.4844 160.836 32.4648 160.836 36.3623C160.836 39.8001 158.748 42.963 154.77 42.963C150.789 42.963 148.648 39.6638 148.799 36.0874ZM202.672 17.2442H201.429L184.318 52.5463C184.914 52.5001 185.511 52.4077 186.255 52.4077C186.902 52.4077 187.501 52.5001 188.296 52.5463C189.838 47.8239 191.78 43.3742 193.718 38.9291H207.646C209.837 43.5128 211.825 48.3738 213.417 52.5463C214.362 52.5001 215.259 52.4077 216.302 52.4077C217.247 52.4077 218.094 52.5001 219.137 52.5463L202.675 17.2419L202.672 17.2442ZM206.751 36.7736H194.713L200.682 23.8449L206.751 36.7736ZM223.168 52.5463C223.865 52.5001 224.61 52.4077 225.357 52.4077C226.053 52.4077 226.75 52.5001 227.545 52.5463V14.6289C226.7 14.6751 226.053 14.7675 225.357 14.7675C224.61 14.7675 223.865 14.6751 223.168 14.6289V52.5417V52.5463ZM236.6 41.1309C236.6 36.4524 238.242 29.8056 244.609 29.8056C250.527 29.8056 252.169 34.8953 252.169 39.8463C252.169 45.7146 250.179 50.8043 244.656 50.8043C239.036 50.8505 236.6 46.5394 236.6 41.1309ZM236.6 48.0989H236.7C238.49 51.2178 241.174 52.9575 245.105 52.9575C252.119 52.9575 256.945 47.9603 256.945 39.7077C256.945 33.6569 253.014 28.156 245.95 28.156C239.334 28.156 237.642 31.8225 236.7 33.5645H236.6V28.4771C235.752 28.5233 235.105 28.6157 234.411 28.6157C233.664 28.6157 232.917 28.5233 232.22 28.4771V65.5212C232.917 65.475 233.664 65.3826 234.411 65.3826C235.105 65.3826 235.752 65.475 236.6 65.5212V48.0989ZM261.62 52.5463C262.317 52.5001 263.064 52.4077 263.808 52.4077C264.505 52.4077 265.202 52.5001 265.999 52.5463V38.8367C265.999 33.5645 268.238 30.769 273.161 30.769C277.836 30.769 279.23 33.5645 279.23 39.1578V52.5463C279.927 52.5001 280.674 52.4077 281.419 52.4077C282.116 52.4077 282.812 52.5001 283.607 52.5463V37.968C283.607 31.5938 281.12 28.1098 274.803 28.1098C270.923 28.1098 267.889 29.9442 265.999 33.0146V14.6289C265.152 14.6751 264.505 14.7675 263.808 14.7675C263.064 14.7675 262.317 14.6751 261.62 14.6289V52.5417V52.5463ZM307.735 36.591C307.735 30.9076 304.602 28.1098 298.879 28.1098C295.645 28.1098 292.712 29.2095 290.075 30.9053V33.747H290.671C291.07 32.6473 293.208 30.2653 297.189 30.2653C301.318 30.2653 303.606 32.4186 303.606 36.1798C303.606 38.608 302.112 38.8829 297.786 39.5714C292.612 40.35 287.638 41.0847 287.638 46.8605C287.638 50.5733 291.022 53.006 294.9 53.006C298.184 53.006 300.721 51.9502 303.01 49.8409L303.506 49.3811C303.955 52.3615 306.291 52.775 309.126 52.3153C309.725 52.2228 310.37 51.9502 310.768 51.8116V50.7119C307.535 51.3542 307.685 50.3445 307.685 48.3738V36.591H307.735ZM303.356 47.3642C303.356 47.7338 302.263 48.5563 301.864 48.9237C300.819 49.8871 298.981 50.8505 297.487 50.8505C294.153 50.8505 292.115 49.291 292.115 46.1281C292.115 41.5421 297.685 41.0385 301.415 40.3523L303.308 39.9826V47.3619H303.358L303.356 47.3642Z" fill="#111416"/>
<path d="M317.832 17.242C317.832 24.1176 321.563 29.8034 326.539 29.667C333.502 29.4822 335.543 24.0737 335.543 17.1958C335.543 10.3179 331.512 4.68066 326.539 4.72456C320.419 4.77076 317.832 10.3641 317.832 17.242ZM312.41 17.242C313.456 2.52511 325.992 2.20166 325.992 2.20166C335.094 2.24787 337.681 11.1889 337.681 11.1889C337.832 11.6949 343.104 2.84625 343.104 2.84625H346.087C339.97 14.994 340.218 19.9474 340.218 19.9474C339.719 26.5019 343.7 28.7498 343.7 28.7498C347.43 30.9493 347.681 24.5311 347.681 24.5311C348.526 24.2539 349.022 23.9813 349.022 23.9813C351.013 32.8761 345.044 32.28 345.044 32.28C340.416 32.7375 338.426 25.7695 338.426 25.7695C331.861 33.7471 324.3 32.0051 324.3 32.0051C311.365 30.538 312.41 17.242 312.41 17.242Z" fill="#FF7200"/>
</svg>
