<svg width="251" height="42" viewBox="0 0 251 42" fill="none" xmlns="http://www.w3.org/2000/svg">
<path d="M2.10048 1.12854H26.7856C28.0169 1.12854 28.5446 1.53898 28.5446 2.7703V7.3438C28.5446 8.57512 28.0169 9.0442 26.7856 9.0442H19.2804V39.241C19.2804 40.4723 18.87 41 17.6386 41H11.3061C10.0748 41 9.6057 40.4723 9.6057 39.241V9.0442H2.10048C0.869157 9.0442 0.341447 8.57512 0.341447 7.3438V2.7703C0.341447 1.53898 0.869157 1.12854 2.10048 1.12854ZM41.3283 1.77352V14.1454C42.9701 12.8554 45.7846 11.2137 50.1821 11.2137C55.5179 11.2137 58.8014 14.6145 58.8014 19.3639V39.241C58.8014 40.4723 58.3323 41 57.101 41H51.1789C49.9476 41 49.4199 40.4723 49.4199 39.241V21.7679C49.4199 19.9502 49.0681 19.2466 47.1918 19.2466C44.905 19.2466 42.501 20.7125 41.3283 21.592V39.241C41.3283 40.4723 40.9179 41 39.6866 41H33.6472C32.4159 41 31.9468 40.4723 31.9468 39.241V1.77352C31.9468 0.54219 32.4159 0.0144793 33.6472 0.0144793H39.6866C40.9179 0.0144793 41.3283 0.54219 41.3283 1.77352ZM88.8653 20.3607V26.8691C88.8653 27.9831 88.3963 28.4522 87.2822 28.4522H73.034V31.9703C73.034 33.7293 74.0895 34.5502 76.5521 34.5502C79.0147 34.5502 80.1288 33.7293 80.1288 31.9703V31.9117C80.1288 30.6803 80.5979 30.2113 81.8292 30.2113H86.8718C88.1031 30.2113 88.5722 30.6803 88.5722 31.9117V32.3221C88.5722 37.8924 85.4059 41.4691 76.5521 41.4691C67.6983 41.4691 63.887 37.8924 63.887 32.3221V20.3607C63.887 14.7904 67.6983 11.2137 76.5521 11.2137C85.4059 11.2137 88.8653 14.7904 88.8653 20.3607ZM73.034 20.7711V22.4715H80.1288V20.7711C80.1288 19.0121 79.0147 18.1325 76.5521 18.1325C74.0895 18.1325 73.034 19.0121 73.034 20.7711ZM112.779 12.8554V11.9759C112.779 9.27873 110.902 8.28195 108.205 8.28195C105.508 8.28195 103.573 9.27873 103.573 11.9759V12.5623C103.573 14.1454 104.804 14.849 105.449 15.0835L115.3 18.4257C119.639 19.8916 122.629 22.9406 122.629 27.2795V31.4426C122.629 36.4851 118.935 41.4691 107.971 41.4691C97.0059 41.4691 93.3119 36.4851 93.3119 31.4426V27.5141C93.3119 26.2827 93.781 25.755 95.0123 25.755H101.11C102.342 25.755 102.752 26.2827 102.752 27.5141V30.1526C102.752 32.8498 105.039 33.8466 107.912 33.8466C110.785 33.8466 113.13 32.8498 113.13 30.1526V28.9799C113.13 26.8691 110.316 25.8723 108.088 25.0514L99.6445 21.8852C96.6541 20.7711 94.1915 17.4876 94.1915 14.0868V10.686C94.1915 5.64339 97.2405 0.659461 108.205 0.659461C118.935 0.659461 122.219 5.64339 122.219 10.686V12.8554C122.219 14.0868 121.75 14.6145 120.518 14.6145H114.42C113.189 14.6145 112.779 14.0868 112.779 12.8554ZM139.293 11.8H144.042C145.274 11.8 145.801 12.2105 145.801 13.4418V17.4289C145.801 18.6603 145.274 19.1293 144.042 19.1293H139.293V30.7976C139.293 32.7325 140.641 33.3775 143.045 33.3775H144.453C145.684 33.3775 146.212 33.9052 146.212 35.1365V39.2996C146.212 40.5309 145.684 41 144.453 41H141.521C132.667 41 129.911 38.0096 129.911 31.853V19.1293H127.331C126.1 19.1293 125.631 18.6603 125.631 17.4289V13.8522C125.631 12.6209 126.1 12.3277 127.331 12.1518L129.853 11.8H129.911V6.46428C129.911 5.23295 130.38 4.70524 131.612 4.70524H137.651C138.882 4.70524 139.293 5.23295 139.293 6.46428V11.8ZM167.429 11.2137C168.66 11.2137 169.188 11.6827 169.188 12.9141V17.4876C169.188 18.7189 168.66 19.1293 167.429 19.2466C163.266 19.657 160.745 21.3574 159.514 22.4715V39.241C159.514 40.4723 159.103 41 157.872 41H151.832C150.601 41 150.132 40.4723 150.132 39.241V13.3831C150.132 12.1518 150.601 11.6827 151.832 11.6827H157.461C158.693 11.6827 159.044 12.1518 159.162 13.3831L159.338 15.0249C160.745 13.3831 163.266 11.2137 167.429 11.2137ZM196.801 20.3607V26.8691C196.801 27.9831 196.332 28.4522 195.218 28.4522H180.97V31.9703C180.97 33.7293 182.025 34.5502 184.488 34.5502C186.95 34.5502 188.064 33.7293 188.064 31.9703V31.9117C188.064 30.6803 188.533 30.2113 189.765 30.2113H194.807C196.039 30.2113 196.508 30.6803 196.508 31.9117V32.3221C196.508 37.8924 193.341 41.4691 184.488 41.4691C175.634 41.4691 171.823 37.8924 171.823 32.3221V20.3607C171.823 14.7904 175.634 11.2137 184.488 11.2137C193.341 11.2137 196.801 14.7904 196.801 20.3607ZM180.97 20.7711V22.4715H188.064V20.7711C188.064 19.0121 186.95 18.1325 184.488 18.1325C182.025 18.1325 180.97 19.0121 180.97 20.7711ZM226.519 20.3607V26.8691C226.519 27.9831 226.05 28.4522 224.936 28.4522H210.688V31.9703C210.688 33.7293 211.743 34.5502 214.206 34.5502C216.668 34.5502 217.782 33.7293 217.782 31.9703V31.9117C217.782 30.6803 218.252 30.2113 219.483 30.2113H224.525C225.757 30.2113 226.226 30.6803 226.226 31.9117V32.3221C226.226 37.8924 223.06 41.4691 214.206 41.4691C205.352 41.4691 201.541 37.8924 201.541 32.3221V20.3607C201.541 14.7904 205.352 11.2137 214.206 11.2137C223.06 11.2137 226.519 14.7904 226.519 20.3607ZM210.688 20.7711V22.4715H217.782V20.7711C217.782 19.0121 216.668 18.1325 214.206 18.1325C211.743 18.1325 210.688 19.0121 210.688 20.7711ZM243.22 11.8H247.97C249.201 11.8 249.729 12.2105 249.729 13.4418V17.4289C249.729 18.6603 249.201 19.1293 247.97 19.1293H243.22V30.7976C243.22 32.7325 244.569 33.3775 246.973 33.3775H248.38C249.611 33.3775 250.139 33.9052 250.139 35.1365V39.2996C250.139 40.5309 249.611 41 248.38 41H245.448C236.595 41 233.839 38.0096 233.839 31.853V19.1293H231.259C230.027 19.1293 229.558 18.6603 229.558 17.4289V13.8522C229.558 12.6209 230.027 12.3277 231.259 12.1518L233.78 11.8H233.839V6.46428C233.839 5.23295 234.308 4.70524 235.539 4.70524H241.578C242.81 4.70524 243.22 5.23295 243.22 6.46428V11.8Z" fill="black"/>
</svg>
